<svg xmlns="http://www.w3.org/2000/svg" width="36" height="36" viewBox="0 0 36 36">
  <g id="Abhishek_Pooja" data-name="Abhishek Pooja" transform="translate(-45 -723)">
    <rect id="Rectangle_718" data-name="Rectangle 718" width="36" height="36" rx="10" transform="translate(45 723)" fill="#fff"/>
    <g id="pooja" transform="translate(53.746 700.096)">
      <path id="Path_23617" data-name="Path 23617" d="M226.526,159.784q0-.054,0-.108a3.346,3.346,0,0,1,.737-2.1,6.948,6.948,0,0,1,.125-3.974l.58-1.741a7.03,7.03,0,0,1-.713.522,4.873,4.873,0,0,0-.966,7.4Z" transform="translate(-216.872 -114.564)" fill="#f6ab33"/>
      <path id="Path_23618" data-name="Path 23618" d="M312.775,117.894a3.342,3.342,0,0,1,1.3.262,3.28,3.28,0,0,1,.436-.149,5.871,5.871,0,0,0-.267-2.481l-1.081-3.244a.411.411,0,0,0-.779,0l-1.081,3.244a5.857,5.857,0,0,0-.219,2.824A3.339,3.339,0,0,1,312.775,117.894Z" transform="translate(-299.761 -76.145)" fill="#f6ab33"/>
      <path id="Path_23619" data-name="Path 23619" d="M413.915,155.431q0,.264-.02.524a3.348,3.348,0,0,1,2,.842,4.951,4.951,0,0,0,.045-.669,4.867,4.867,0,0,0-2.22-4.092,7.4,7.4,0,0,1-.746-.554l.585,1.754A6.924,6.924,0,0,1,413.915,155.431Z" transform="translate(-398.045 -114.198)" fill="#f6ab33"/>
      <path id="Path_23620" data-name="Path 23620" d="M430.848,307.388c0-.036,0-.072,0-.108A2.28,2.28,0,0,0,428.573,305c-.043,0-.086,0-.129,0a3.349,3.349,0,0,1,.888,2.274q0,.054,0,.108Z" transform="translate(-412.956 -262.168)" fill="#f6ab33"/>
      <path id="Path_23621" data-name="Path 23621" d="M299.281,305A2.28,2.28,0,0,0,297,307.279c0,.036,0,.072,0,.108h4.55c0-.036,0-.072,0-.108A2.28,2.28,0,0,0,299.281,305Z" transform="translate(-286.267 -262.168)" fill="#f6ab33"/>
      <path id="Path_23622" data-name="Path 23622" d="M17.97,401H.546a.542.542,0,0,0-.542.542,2.28,2.28,0,0,0,2.277,2.277H16.235a2.28,2.28,0,0,0,2.277-2.277A.542.542,0,0,0,17.97,401Z" transform="translate(-0.004 -354.698)" fill="#f6ab33"/>
      <path id="Path_23623" data-name="Path 23623" d="M1.876,41.1h-.43a.542.542,0,0,0-.53.656l.743,3.465H6.439l.743-3.465a.542.542,0,0,0-.53-.656H6.218L8.04,34.852A.542.542,0,1,0,7,34.548L5.088,41.1h-.5V33.543a.542.542,0,0,0-1.084,0V41.1h-.5L1.062,34.546a.542.542,0,0,0-1.04.309Z" fill="#f6ab33"/>
    </g>
  </g>
</svg>
