<svg xmlns="http://www.w3.org/2000/svg" width="18.653" height="21" viewBox="0 0 18.653 21">
  <g id="About_temple" data-name="About temple" transform="translate(-36.5 -16.4)">
    <g id="Group_16964" data-name="Group 16964" transform="translate(36.5 16.4)">
      <path id="Path_4519" data-name="Path 4519" d="M185.8,39.411h1.646v-1l-.792-.8a.037.037,0,0,0-.028-.011c-.006,0-.023,0-.029.011l-.792.8v1Z" transform="translate(-177.296 -36.393)" fill="#f17b28" fill-rule="evenodd"/>
      <path id="Path_4520" data-name="Path 4520" d="M78.94,137.814l-.792-.8A.037.037,0,0,0,78.12,137c-.006,0-.023,0-.028.011l-.792.8v.906h1.646v-.906Z" transform="translate(-74.976 -130.131)" fill="#f17b28" fill-rule="evenodd"/>
      <path id="Path_4521" data-name="Path 4521" d="M296.14,137.814l-.792-.8a.037.037,0,0,0-.028-.011c-.006,0-.023,0-.028.011l-.792.8v.906h1.646Z" transform="translate(-279.805 -130.131)" fill="#f17b28" fill-rule="evenodd"/>
      <path id="Path_4522" data-name="Path 4522" d="M37.4,223l-.9.945H55.153L54.259,223H37.4Z" transform="translate(-36.5 -211.233)" fill="#f17b28" fill-rule="evenodd"/>
      <path id="Path_4523" data-name="Path 4523" d="M275.932,255.337V247.5H271.7v7.837Zm-2.113-5.639a1.206,1.206,0,0,1,1.213,1.213v2.768a.229.229,0,0,1-.228.228h-1.976a.229.229,0,0,1-.228-.228v-2.762A1.224,1.224,0,0,1,273.819,249.7Z" transform="translate(-258.304 -234.337)" fill="#f17b28" fill-rule="evenodd"/>
      <path id="Path_4524" data-name="Path 4524" d="M294.4,198.9h1.646v.923H294.4Z" transform="translate(-279.711 -188.505)" fill="#f17b28" fill-rule="evenodd"/>
      <path id="Path_4525" data-name="Path 4525" d="M294.4,175.2h1.646v.9H294.4Z" transform="translate(-279.711 -166.155)" fill="#f17b28" fill-rule="evenodd"/>
      <path id="Path_4526" data-name="Path 4526" d="M296.926,294.763a.773.773,0,0,0-.222-.541.765.765,0,0,0-1.3.541v2.54h1.526Z" transform="translate(-280.654 -278.189)" fill="#f17b28" fill-rule="evenodd"/>
      <path id="Path_4527" data-name="Path 4527" d="M137.868,255.337v-3.953a2.455,2.455,0,1,1,4.91,0v3.953h1.168V247.5H136.7v7.837Z" transform="translate(-130.993 -234.337)" fill="#f17b28" fill-rule="evenodd"/>
      <path id="Path_4528" data-name="Path 4528" d="M148.6,176.718h5.889l-.37-2.318H148.97ZM151.545,175a.228.228,0,0,1,.228.228v.661a.228.228,0,1,1-.456,0v-.661A.225.225,0,0,1,151.545,175Z" transform="translate(-142.215 -165.401)" fill="#f17b28" fill-rule="evenodd"/>
      <path id="Path_4529" data-name="Path 4529" d="M156.3,128.307h5l-.37-2.307h-4.266Zm2.506-1.709a.229.229,0,0,1,.228.228v.661a.228.228,0,0,1-.456,0v-.661A.228.228,0,0,1,158.806,126.6Z" transform="translate(-149.477 -119.758)" fill="#f17b28" fill-rule="evenodd"/>
      <path id="Path_4530" data-name="Path 4530" d="M164.47,77.3l-.37,2.318h4.124l-.37-2.318H164.47Zm1.464.832a.228.228,0,1,1,.456,0v.661a.228.228,0,0,1-.456,0Z" transform="translate(-156.832 -73.831)" fill="#f17b28" fill-rule="evenodd"/>
      <path id="Path_4531" data-name="Path 4531" d="M168.517,281.087A2,2,0,0,0,165.1,282.5v3.953h4V282.5A1.982,1.982,0,0,0,168.517,281.087Z" transform="translate(-157.775 -265.458)" fill="#f17b28" fill-rule="evenodd"/>
      <path id="Path_4532" data-name="Path 4532" d="M58.732,255.337V247.5H54.5v7.837Zm-2.113-5.644a1.206,1.206,0,0,1,1.213,1.213v2.762a.228.228,0,0,1-.228.228H55.628a.228.228,0,0,1-.228-.228v-2.762A1.219,1.219,0,0,1,56.619,249.693Z" transform="translate(-53.475 -234.337)" fill="#f17b28" fill-rule="evenodd"/>
      <path id="Path_4533" data-name="Path 4533" d="M77.2,198.9h1.646v.923H77.2Z" transform="translate(-74.882 -188.505)" fill="#f17b28" fill-rule="evenodd"/>
      <path id="Path_4534" data-name="Path 4534" d="M77.2,175.2h1.646v.9H77.2Z" transform="translate(-74.882 -166.155)" fill="#f17b28" fill-rule="evenodd"/>
      <path id="Path_4535" data-name="Path 4535" d="M79.726,294.663a.772.772,0,0,0-.222-.541.765.765,0,0,0-1.3.541v2.54h1.526Z" transform="translate(-75.825 -278.094)" fill="#f17b28" fill-rule="evenodd"/>
      <path id="Path_4536" data-name="Path 4536" d="M87.928,116.961c.08,0,.159.091.228.125v-.558a.228.228,0,1,0-.456,0v.558C87.768,117.052,87.848,116.961,87.928,116.961Z" transform="translate(-84.784 -110.61)" fill="#f17b28" fill-rule="evenodd"/>
      <path id="Path_4537" data-name="Path 4537" d="M305.256,117.086v-.558a.228.228,0,1,0-.456,0v.558c.068-.034.148-.125.228-.125S305.187,117.052,305.256,117.086Z" transform="translate(-289.518 -110.61)" fill="#f17b28" fill-rule="evenodd"/>
      <path id="Path_4538" data-name="Path 4538" d="M196.528,17.089c.08,0,.159.091.228.125v-.587a.228.228,0,1,0-.456,0v.587C196.368,17.175,196.448,17.089,196.528,17.089Z" transform="translate(-187.198 -16.4)" fill="#f17b28" fill-rule="evenodd"/>
    </g>
  </g>
</svg>
