<svg xmlns="http://www.w3.org/2000/svg" width="364" height="165" viewBox="0 0 364 165">
  <g id="Card_1" data-name="Card 1" transform="translate(-35 -362)">
    <rect id="Rectangle_18322" data-name="Rectangle 18322" width="364" height="165" rx="17" transform="translate(35 362)" fill="#fff"/>
    <line id="Line_284" data-name="Line 284" y2="128" transform="translate(181.5 383.5)" fill="none" stroke="#707070" stroke-linecap="round" stroke-width="2" stroke-dasharray="2 6" opacity="0.71"/>
    <g id="_FLAT" data-name="/ FLAT" transform="translate(37 365.342)">
      <rect id="Rectangle_18334" data-name="Rectangle 18334" width="51.944" height="89.521" rx="3" transform="translate(32.578 24)" fill="#46c89d" stroke="#00b378" stroke-width="1"/>
      <path id="Path_23581" data-name="Path 23581" d="M136,152h43a39.265,39.265,0,0,1,39.265,39.265h0A39.265,39.265,0,0,1,179,230.53h-3.74A39.265,39.265,0,0,1,136,191.265V152Z" transform="translate(-91.953 -98.084)" fill="#e7ffff"/>
      <path id="Path_23582" data-name="Path 23582" d="M241.421,303.518a39.153,39.153,0,0,0,14.626,2.817h3.74a39.265,39.265,0,0,0,39.265-39.265h0a39.123,39.123,0,0,0-3.462-16.143,78.689,78.689,0,0,1-54.168,52.591Z" transform="translate(-172.736 -173.89)" fill="#b0ffff"/>
      <path id="Path_23583" data-name="Path 23583" d="M136,24l1.162,4.646a3.739,3.739,0,0,0,3.628,2.833h20.337a3.739,3.739,0,0,0,3.628-2.833L165.916,24Z" transform="translate(-91.954)" fill="#00b378"/>
      <g id="Group_19299" data-name="Group 19299" transform="translate(40.314 24)">
        <rect id="Rectangle_18335" data-name="Rectangle 18335" width="7.736" height="7.736" rx="3.868" transform="translate(0 14.368)" fill="#bdecdc"/>
        <rect id="Rectangle_18336" data-name="Rectangle 18336" width="7.736" height="7.736" rx="3.868" transform="translate(14.368 14.368)" fill="#bdecdc"/>
        <rect id="Rectangle_18337" data-name="Rectangle 18337" width="7.736" height="7.736" rx="3.868" transform="translate(29.841 14.368)" fill="#bdecdc"/>
        <path id="Path_23584" data-name="Path 23584" d="M376,24h3.739v5.609H376Z" transform="translate(-316.175 -24)" fill="#bdecdc"/>
        <path id="Path_23585" data-name="Path 23585" d="M352,48h5.609v3.74H352Z" transform="translate(-297.785 -42.391)" fill="#bdecdc"/>
        <path id="Path_23586" data-name="Path 23586" d="M376,64h3.739v5.609H376Z" transform="translate(-316.175 -54.651)" fill="#bdecdc"/>
        <path id="Path_23587" data-name="Path 23587" d="M392,48h5.609v3.74H392Z" transform="translate(-328.436 -42.391)" fill="#bdecdc"/>
        <path id="Path_23588" data-name="Path 23588" d="M448,88h3.74v5.609H448Z" transform="translate(-371.348 -73.042)" fill="#bdecdc"/>
        <path id="Path_23589" data-name="Path 23589" d="M424,112h5.609v3.74H424Z" transform="translate(-352.957 -91.433)" fill="#bdecdc"/>
        <path id="Path_23590" data-name="Path 23590" d="M464,112h5.609v3.74H464Z" transform="translate(-383.608 -91.433)" fill="#bdecdc"/>
      </g>
      <path id="Path_23591" data-name="Path 23591" d="M36.567,260.874a3.74,3.74,0,0,1-3.74-3.74V234.056a3.74,3.74,0,0,1,1.1-2.644l6.384-6.384a5.288,5.288,0,0,0,0-7.479h0a5.288,5.288,0,0,0-7.479,0L22.7,227.672a3.739,3.739,0,0,0-1.1,2.644v15.92a7.479,7.479,0,0,1-2.191,5.288L16,254.944l5.609,26.5,10.9-10.9a7.479,7.479,0,0,1,5.288-2.191h3.153a7.479,7.479,0,0,0,5.288-2.191l5.288-5.288Z" transform="translate(0 -147.126)" fill="#e8bb85"/>
      <path id="Path_23592" data-name="Path 23592" d="M448,128h3.74v5.609H448Z" transform="translate(-331.034 -79.693)" fill="#bdecdc"/>
      <path id="Path_23593" data-name="Path 23593" d="M240.614,216H195.74a3.74,3.74,0,0,0-3.74,3.74v18.034h52.353V219.74A3.74,3.74,0,0,0,240.614,216Z" transform="translate(-134.865 -147.126)" fill="#00b378"/>
      <path id="Path_23594" data-name="Path 23594" d="M240.614,314.7H195.74a3.74,3.74,0,0,1-3.74-3.74V296h52.353v14.958A3.74,3.74,0,0,1,240.614,314.7Z" transform="translate(-134.865 -207.685)" fill="#31c292"/>
      <circle id="Ellipse_472" data-name="Ellipse 472" cx="14.92" cy="14.92" r="14.92" transform="translate(67.944 94.732)" fill="#00a16c"/>
      <path id="Path_23597" data-name="Path 23597" d="M279.4,377.528l-5.062-5.062,2.644-2.644,2.417,2.417,9.9-9.9,2.644,2.644Z" transform="translate(-199.833 -260.283)" fill="#fff"/>
      <path id="Path_23598" data-name="Path 23598" d="M298.07,422.3a14.961,14.961,0,0,0,14.208-10.28,78.582,78.582,0,0,1-16.016,10.167A15.071,15.071,0,0,0,298.07,422.3Z" transform="translate(-214.759 -297.33)" fill="#00895c"/>
      <rect id="Rectangle_18338" data-name="Rectangle 18338" width="26.877" height="3" transform="translate(79.011 74.413)" fill="#59cea7"/>
      <rect id="Rectangle_18339" data-name="Rectangle 18339" width="26.877" height="3" transform="translate(79.011 78.413)" fill="#59cea7"/>
      <rect id="Rectangle_18340" data-name="Rectangle 18340" width="17" height="3" transform="translate(79.011 82.413)" fill="#59cea7"/>
      <circle id="Ellipse_473" data-name="Ellipse 473" cx="6.5" cy="6.5" r="6.5" transform="translate(62 73.658)" fill="#59cea7"/>
    </g>
  </g>
</svg>
