<?xml version="1.0" standalone="yes"?>
<svg xmlns="http://www.w3.org/2000/svg" width="1024" height="1024">
<path style="fill:#fffcfd; stroke:none;" d="M0 0L0 1024L1024 1024L1024 947L1020 947C1020 961.876 1017.21 966.852 1006.4 976.799C1003.23 979.715 1002.41 982.725 998 984C996.059 989.644 983.534 1002.86 977.892 1005.26C973.895 1006.96 968.321 1006.2 964 1007L964 1011L427 1011C425.69 1003.15 414.98 1007.55 412 999C399.284 998.992 382.274 983.348 376.179 971.946C374.737 969.248 375.67 966.075 374.397 963.414C373.254 961.026 370.338 960.196 369.027 957.867C367.509 955.172 368.601 951.969 367.397 949.224C365.511 944.928 360.941 944.397 360.189 938.999C358.316 925.555 361.147 911.528 359.941 898.015C359.39 891.834 353.378 888.673 353.04 882C352.469 870.725 353 859.29 353 848C353 844.849 354.216 838.261 351.397 836.028C348 833.338 339.125 835 335 835L292 835L123 835C110.974 835 94.5904 837.923 83.044 834.566C79.3646 833.497 78.4225 829.335 74.8673 828.318C65.2097 825.554 51.4453 825.131 48 813C42.1685 810.995 35.0046 803.832 33 798C18.8983 793.998 20.5254 781.919 17.6867 771.129C16.157 765.314 13.0108 762.748 13 756C12.9282 711.334 13 666.666 13 622C13 434.344 13.4825 246.568 14 59C20.5445 56.8279 16.4505 48.1745 21.26 43.6836C27.7799 37.5956 31.4526 30.3599 37.3403 24.2137C40.0163 21.4203 43.5805 21.1861 46.5054 19.0162C50.6268 15.9587 53.7399 10.9329 57.4946 7.41821C62.1782 3.03412 70.6648 7.68945 72 0L0 0z"/>
<path style="fill:#fec99d; stroke:none;" d="M72 0C69.5761 7.67377 60.7867 2.73718 56.1698 8.18445C50.4853 14.8911 43.2731 17.7277 37.3403 23.3943C34.5533 26.0562 34.2173 29.7252 32.0702 32.7014C29.0731 36.8559 24.0636 40.0127 20.5093 43.6836C15.9545 48.3877 20.2683 55.5435 14 59L14 65C22.5786 62.3959 17.3977 52.0648 21.5995 46.2091C30.6799 33.5547 47.2614 16.5003 60.1289 7.7384C65.8986 3.80957 76.4925 9.06006 78 0L72 0z"/>
<path style="fill:#e4a774; stroke:none;" d="M78 0C75.1779 9.32428 63.5447 3.25885 57.7099 9.18518C46.5606 20.5095 28.9684 32.4 21.027 46.2091C18.8106 50.0632 19.9928 55.7252 18.7222 59.9815C17.7819 63.1315 15.061 64.9577 14 68C26.3367 66.6135 19.4061 55.2486 24.5988 48.375C34.1917 35.6767 48.5759 21.0657 61.375 11.588C68.6819 6.17731 80.5751 13.0549 81 0L78 0z"/>
<path style="fill:#fc971b; stroke:none;" d="M81 0C80.0665 12.3474 68.7614 6.5918 61.375 11.0239C57.2335 13.509 54.0664 18.412 50.6258 21.7415C41.9414 30.1454 32.2067 38.0193 24.5988 47.5941C19.1145 54.4963 26.1915 65.5178 14 68L14 763C28.1652 766.701 17.8509 777.546 24.588 785.201C33.0227 794.784 43.8745 807.825 54.3897 815.012C61.3938 819.8 69.4957 820.752 76.9815 823.603C80.3263 824.877 81.6949 828.714 85.1289 829.682C99.4783 833.727 120.058 830 135 830L246 830C279.589 830 314.552 827.175 348 830.094C353.878 830.607 357.209 835.724 363.015 835.981C427.391 838.832 492.552 836 557 836L557 837C550.977 838.99 538.209 852.633 538 859C528.663 859.306 523.07 872.633 523 881C517.358 881.312 515.51 883.43 515 889C509.777 889.174 508.288 890.796 508 896C502.018 896.456 493.195 905.05 493 911C487.69 911.174 486.174 912.69 486 918C480.45 918.509 478.509 920.45 478 926C472.777 926.174 471.288 927.796 471 933C465.316 933.315 463.766 935.51 463 941C457.69 941.174 456.174 942.69 456 948C446.267 948.539 451.643 954.791 447.821 960.687C445.089 964.901 441.455 964.031 441 970C435.674 970.6 434.171 972.77 434 978C428.746 978.172 426.841 979.769 426 985L414 993L414 994C421.644 994.393 426.19 987.202 431.155 982.166C437.041 976.196 444.57 970.588 449.4 963.714C453.719 957.569 454.38 951.375 460.371 945.371C481.61 924.089 503.846 903.555 524.41 881.626C531.769 873.778 534.704 864.054 542.205 856.166C551.944 845.925 562.48 836.429 572.36 826.371C575.918 822.75 581.46 819.232 583.976 814.791C587.979 807.724 586.258 785.991 584.772 778.015C583.882 773.241 579.111 770.831 578.228 765.999C575.439 750.736 580.215 734.331 577.786 719.001C576.774 712.611 571.005 708.737 570.184 702C568.474 687.947 572.363 672.922 569.772 659.015C568.831 653.966 563.924 651.299 563.189 646C561.105 630.961 565.487 614.932 562.772 600C561.562 593.347 555.898 589.24 555.171 582C553.77 568.055 557.605 552.718 554.721 539.015C553.618 533.773 548.896 530.617 548.185 525C546.365 510.611 550.395 495.26 547.772 481.004C546.54 474.312 540.898 470.519 540.17 463C538.82 449.063 542.602 433.704 539.721 420.015C538.552 414.456 533.835 411.061 533.174 405C531.638 390.932 535.302 375.914 532.772 362C531.571 355.399 526.168 351.155 525.286 344C523.584 330.192 526.98 315.723 524.852 302C523.866 295.641 518.359 291.966 518.039 285C517.401 271.072 520.265 255.714 517.772 242C516.809 236.704 511.945 233.461 511.189 228C509.258 214.046 514.474 197.651 510.682 184.108C509.325 179.263 503.245 178.544 502.228 172.999C499.468 157.951 502.923 141.276 501.956 126.004C501.53 119.283 495.446 115.01 494.428 108C492.759 96.5105 495.727 84.4556 493.852 73.0432C493.188 69.0029 489.198 67.5746 487.742 63.9568C485.793 59.1115 488.69 52.9138 485.976 48.375C478.241 35.4409 461.228 22.5433 450.139 12.2747C442.934 5.60309 429.55 13.9088 428 0L81 0z"/>
<path style="fill:#e4a774; stroke:none;" d="M428 0C428.754 13.7576 441.035 5.97113 448.625 11.588C460.873 20.6517 476.35 36.1277 485.412 48.375C488.902 53.0914 485.578 59.7302 487.742 64.8958C489.107 68.1525 492.749 69.5049 493.682 73.0432C496.822 84.951 492.549 98.7645 494.758 111C495.779 116.649 500.775 119.669 501.772 125.015C504.732 140.893 499.284 158.114 502.228 173.995C503.239 179.444 509.351 180.053 510.682 185.044C514.334 198.732 509.245 214.949 511.189 229C511.945 234.461 516.809 237.704 517.772 243C520.265 256.714 517.401 272.072 518.039 286C518.359 292.966 523.866 296.641 524.852 303C526.98 316.723 523.584 331.192 525.286 345C526.168 352.155 531.571 356.399 532.772 363C535.302 376.914 531.638 391.932 533.174 406C533.834 412.046 538.562 415.421 539.721 421.004C542.57 434.718 538.818 450.046 540.17 464C540.897 471.514 546.542 475.27 547.772 482.001C550.378 496.265 546.362 511.606 548.185 526C548.894 531.598 553.628 534.738 554.721 540.004C557.573 553.731 553.768 569.039 555.171 583C555.898 590.24 561.562 594.347 562.772 601C565.487 615.932 561.098 631.961 563.189 646.999C563.923 652.277 568.837 654.922 569.772 660.004C572.333 673.929 568.472 688.936 570.184 703C571.003 709.72 576.773 713.58 577.786 720C580.207 735.328 575.421 751.74 578.228 766.996C579.114 771.806 583.886 774.194 584.772 779.004C586.213 786.835 587.757 806.865 583.976 813.896C581.376 818.732 575.344 822.419 571.59 826.371C562.141 836.321 551.775 845.404 542.205 855.285C534.606 863.132 531.593 872.751 524.41 880.795C504.154 903.476 480.637 923.413 459.593 945.371C453.999 951.209 453.473 956.886 449.4 962.83C441.213 974.782 423.032 995.268 408.004 993.941C401.031 993.326 395.687 984.424 390.834 980C380.111 970.226 376.707 958.543 371.258 946.209C369.824 942.964 366.251 941.622 365.318 937.985C361.713 923.935 365.863 906.487 364.956 892C364.508 884.844 357.328 882.133 357.019 875C356.573 864.714 356.952 854.296 357.001 844C357.02 840.008 358.598 834.588 354.837 831.858C349.943 828.305 340.71 830 335 830L285 830L148 830L106 830C99.8387 830 92.0222 831.285 86.054 829.682C82.5053 828.729 81.277 824.916 77.946 823.603C70.4031 820.632 62.4425 819.604 55.213 815.012C44.2355 808.04 34.5443 794.382 25.2739 785.201C17.9028 777.9 28.668 765.332 14 763L14 767C23.5234 769.763 17.7351 778.984 20.7423 785.791C22.6605 790.133 28.5611 793.987 31.9105 797.282C38.4235 803.688 44.426 810.66 51.2855 816.725C55.086 820.086 62.6112 818.319 63 824C67.1202 825.983 72.043 824.925 75.8958 827.027C79.0957 828.773 80.3498 832.497 84.0432 833.566C89.99 835.289 97.8406 834 104 834L146 834L278 834L330 834C335.676 834 345.841 832.061 350.852 835.028C354.879 837.412 354 843.034 354 847C354.001 857.65 353.681 868.355 354.015 879C354.237 886.058 360.211 890.154 360.895 897C362.265 910.722 358.725 925.437 361.228 938.996C362.093 943.681 366.55 945.05 368.258 949.104C371.301 956.329 373.126 966.36 377.738 972.741C382.923 979.913 394.383 992.578 402.104 996.821C409.192 1000.72 426.536 1002.51 429 1011L433 1011C432.505 1000.34 426.354 1001.99 418 1000C429.396 992.584 445.619 977.215 453.143 965.871C455.264 962.673 454.269 958.486 456.588 955.455C471.108 936.478 491.213 920.786 507.68 903.49C517.692 892.974 536.674 881.724 537 866C545.449 863.556 554.061 849.749 560.399 843.491C565.167 838.783 568.573 833.143 573.374 828.371C577.301 824.469 584.117 820.195 586.258 814.946C589.622 806.698 589.03 783.602 586.427 775.089C585.162 770.949 581.444 768.401 580.483 764C577.335 749.578 581.471 733.649 579.826 719C578.945 711.164 572.434 706.019 572.04 698C571.388 684.71 574.163 670.091 571.772 657.004C570.678 651.018 565.576 647.584 565.09 641C564.073 627.214 566.939 612.653 564.786 599C563.787 592.66 558.273 588.505 557.301 582C555.205 567.966 557.841 553.151 556.956 539C556.549 532.489 550.916 528.508 550.174 522C548.598 508.168 551.766 493.795 549.811 480.015C548.955 473.983 543.465 470.303 542.44 464C540.039 449.242 543.852 433.783 541.811 419C541.026 413.317 536.102 409.635 535.214 404C532.998 389.949 536.473 375.133 534.891 361.001C534.253 355.295 529.174 351.835 528.301 346C526.304 332.654 528.621 318.47 527.96 305C527.564 296.923 520.985 292.113 520.171 284C518.737 269.73 523.361 252.808 519.427 239C518.261 234.904 514.739 232.096 513.573 228C511.113 219.367 513 207.943 513 199C513 194.715 511.548 187.034 514.028 183.318C517.57 178.009 536.187 181 542 181L626 181L879 181C902.039 181 926.056 179.024 948.995 181.059C954.093 181.511 954.277 185.591 958.143 187.821C961.805 189.933 967.188 189.127 971 188L971 186C968.137 185.151 964.7 185.354 962.039 183.973C958.256 182.009 956.481 178.055 951.996 177.228C940.41 175.092 926.784 177 915 177L838 177L629 177L538 177C530.722 177 523.257 176.522 516 177.093C513.019 177.328 509.029 179.165 506.333 177.164C503.348 174.951 504.91 170.112 504.985 167C505.218 157.345 505 147.658 505 138C505 132.468 506.197 125.258 504.262 120C502.534 115.308 498.846 112.219 498.185 107C496.735 95.5411 499.866 83.3578 497.772 72.0038C496.835 66.9276 491.55 64.8611 490.318 59.9962C489.207 55.6091 491.292 50.2981 488.976 46.2091C486.278 41.4452 480.39 37.5546 476.59 33.6404C468.568 25.3753 460.198 14.3427 450.791 7.7384C443.81 2.83722 432.265 10.9487 430 0L428 0z"/>
<path style="fill:#fec99d; stroke:none;" d="M430 0C431.284 11.2544 442.928 3.0946 449.896 7.7384C459.738 14.2977 468.201 26.0336 476.59 34.4097C480.404 38.217 486.414 42.3401 488.976 47.1042C491.235 51.3057 489.175 56.5308 490.318 60.9854C491.56 65.825 496.834 67.8806 497.772 73.0008C499.852 84.3617 496.735 96.537 498.185 108C498.846 113.219 502.534 116.308 504.262 121C505.906 125.467 505 131.312 505 136C505 145.991 505.23 156.012 504.985 166C504.907 169.202 502.949 174.703 505.607 177.243C508.161 179.683 512.078 177.793 515 177.325C521.777 176.24 529.149 177 536 177L626 177L827 177L910 177C923.055 177 938.163 174.878 950.999 177.228C955.548 178.061 957.3 181.953 961.089 183.973C963.942 185.493 967.865 185.253 971 186L971 188C966.887 188.979 961.869 189.896 958.143 187.258C954.866 184.938 954.477 181.467 949.981 181.059C927.065 178.978 903.019 181 880 181L627 181L542 181C536.479 181 517.628 178.058 514.028 182.603C509.763 187.988 513 206.214 513 213C513 218.328 511.989 224.929 513.893 230C515.521 234.337 519.148 237.209 519.811 242C521.856 256.782 518.035 272.243 520.44 287C521.678 294.599 527.774 298.939 527.985 307C528.328 320.079 526.358 334.054 528.301 346.999C529.174 352.816 534.251 356.263 534.891 362C536.468 376.132 532.998 390.949 535.214 405C536.102 410.635 541.026 414.317 541.811 420C543.852 434.783 540.039 450.242 542.44 465C543.468 471.32 548.959 474.921 549.811 481.004C551.742 494.794 548.598 509.161 550.174 523C550.847 528.904 555.755 532.406 556.772 538C559.359 552.236 555.603 567.606 557.174 582C557.937 589 563.732 593.313 564.786 600C566.875 613.248 564.43 627.602 565.039 641C565.371 648.292 571.14 652.266 571.891 659C573.436 672.852 570.435 687.166 572.185 701C573.081 708.08 579.019 712.824 579.826 720C581.471 734.646 577.326 750.583 580.483 764.999C581.442 769.38 585.191 771.887 586.427 776.039C588.913 784.384 589.455 805.873 586.258 813.981C584.168 819.28 577.395 823.762 573.374 827.593C568.301 832.428 564.449 838.459 559.68 843.491C553.249 850.276 545.33 861.997 537 866C536.316 881.652 516.687 892.708 507.03 903.49C493.113 919.028 477.266 932.717 462.799 947.683C457.116 953.562 456.973 960.045 452.491 965.871C443.018 978.183 429.448 989.538 418 1000C425.909 1002.34 432.06 1000.65 433 1011L964 1011L964 1007C968.395 1006.44 974.788 1007.07 978.776 1005.26C984.237 1002.78 996.846 989.655 998 984C1002.68 983.256 1003.29 980.595 1006.4 977.494C1017.21 966.719 1020 962.666 1020 947L1024 947L1024 248C1011.58 247.597 1014 235.197 1014 226C1008.56 224.129 1000.49 216.586 999 211L980 195L980 193C985.219 192.81 987.511 196.136 991.05 199.576C998.825 207.135 1011.68 216.539 1016.82 226.093C1020.22 232.415 1014.36 242.463 1024 244L1024 243C1016.57 238.904 1022.58 229.394 1018.14 223.274C1014.93 218.849 1009.47 215.48 1005.68 211.51C992.439 197.627 980.728 183 960 183C957.841 172.423 942.341 176 934 176L853 176C738.246 176 622.585 179.919 508 175L506.826 123L499.044 103.999L498.682 69.0548L492.318 60.892L490.821 45.2238L470.541 25.5208L450.867 5.74231L433 4L433 0L430 0z"/>
<path style="fill:#fffcfd; stroke:none;" d="M433 0L433 4L449.945 5.74231L462.799 18.51L490.821 46.108L492.603 62.5857L498.682 70.0185L499.228 106.961L506.91 125L508 175C548.633 178.207 590.207 176 631 176L852 176L933 176C941.937 176 956.424 172.606 960 183C982.795 183.003 1003.66 206.832 1017.49 223.274C1022.19 228.861 1016.45 240.495 1024 243L1024 0L433 0z"/>
<path style="fill:#fec99d; stroke:none;" d="M13 67L13 765L14 765L14 270L14 127L14 86L13 67z"/>
<path style="fill:#e4a774; stroke:none;" d="M980 193L980 195L999 211C999.954 216.863 1008.21 224.818 1014 226C1014 235.624 1011.18 247.849 1024 248L1024 244C1014.85 241.344 1020.02 232.764 1017.26 226.093C1013.31 216.541 998.428 205.932 991.05 198.718C987.505 195.252 985.236 192.033 980 193M246 206.533C234.618 209.295 222.73 220.341 220.344 232C218.943 238.849 220.953 246.112 219.852 252.985C219.019 258.186 213.2 259.742 212.228 265.004C210.677 273.401 213.806 282.708 211.682 290.985C210.609 295.168 206.058 296.745 205.228 301.043C203.552 309.734 206.908 319.409 204.682 327.982C203.483 332.598 198.364 334.113 197.344 339.005C195.534 347.685 198.977 357.402 196.682 365.946C195.648 369.795 191.336 371.097 190.318 375.018C188.008 383.911 192.065 394.075 189.682 402.946C188.464 407.482 183.366 409.048 182.344 414.001C180.615 422.38 183.859 431.703 181.682 439.957C180.487 444.488 175.68 445.962 175.109 451.004C174.166 459.327 176.832 468.846 174.682 476.957C173.566 481.169 168.869 482.513 168.148 487.015C166.758 495.696 169.939 505.443 167.682 513.957C166.545 518.246 161.657 519.672 160.434 524.015C155.74 540.676 165.016 553.894 176.594 564.57C180.15 567.849 185.528 567 190 567C202.607 567 219.362 559.934 223.427 545.995C224.723 541.554 222.852 536.405 224.603 532.129C226.273 528.05 230.34 526.9 230.891 521.999C231.778 514.114 228.247 502.229 232.027 495.089C233.828 491.686 237.209 490.084 237.852 485.996C239.173 477.598 234.424 463.237 240.275 456.375C252.939 441.523 283.79 448 302 448C306.88 448 319.743 445.705 322.821 450.318C326.829 456.324 322.793 467.135 324.394 473.985C325.38 478.203 329.07 480.908 330.348 485.004C332.719 492.604 329.808 501.238 331.228 508.999C332.07 513.599 336.408 515.749 337.721 520.039C340.405 528.801 337.032 538.334 339.318 546.957C340.246 550.457 343.839 552.467 346.139 555.05C355.553 565.62 367.321 570.805 381.957 566.566C385.242 565.615 386.828 562.665 389.191 560.451C400.321 550.021 402 545.073 402 530C402 525.481 403.044 519.35 401.258 515.104C399.694 511.387 395.375 510.082 394.318 505.985C392.104 497.4 395.417 487.725 393.772 479.018C392.996 474.913 389.03 473.604 387.603 469.946C385.345 464.159 387.003 455.156 387 449C386.996 440.842 382.109 439.616 380.318 432.946C378.023 424.402 381.466 414.685 379.656 406.005C378.636 401.113 373.517 399.598 372.318 394.982C370.091 386.406 373.405 376.719 371.772 368.015C370.946 363.616 366.413 362.108 365.318 357.957C363.145 349.719 366.318 340.378 364.772 332.004C363.861 327.074 358.755 325.526 357.434 320.957C354.988 312.501 358.221 302.662 356.852 294.005C356.13 289.436 351.446 288.145 350.318 283.946C348.145 275.858 350.832 266.311 349.891 258.004C349.26 252.436 343.623 251.047 342.318 245.985C340.668 239.588 343.374 232.427 341.682 226.043C340.251 220.643 329.387 211.006 324.791 207.742C319.728 204.145 309.92 206 304 206C286.038 206 263.447 202.299 246 206.533z"/>
<path style="fill:#fec99d; stroke:none;" d="M247 207.653C235.421 211.264 223.487 221.576 221.228 234C220.048 240.494 222.305 247.589 220.682 253.996C219.355 259.235 213.749 261.298 213.109 267.001C212.206 275.044 214.697 284.13 212.682 291.985C211.55 296.398 206.882 298.341 206.148 303.004C204.831 311.376 207.842 320.747 205.682 328.96C204.477 333.542 199.365 335.168 198.344 340.015C196.577 348.409 199.8 357.69 197.682 365.985C196.569 370.344 192.07 372.436 191.228 377.004C189.68 385.402 192.805 394.709 190.682 402.985C189.637 407.059 185.363 408.941 184.318 413.015C182.109 421.624 185.894 431.377 183.682 439.985C182.512 444.541 177.482 446.413 176.318 451.004C174.135 459.61 177.956 469.377 175.682 477.957C174.655 481.834 170.345 483.166 169.318 487.043C167.044 495.623 170.863 505.389 168.682 513.996C167.533 518.532 162.691 520.53 161.434 525.015C157.081 540.542 166.741 554.388 178.17 563.686C190.982 574.109 219.47 560.132 221.852 544.996C222.466 541.091 221.211 536.787 222.603 533.004C224.437 528.018 228.85 525.659 229.699 519.999C230.864 512.239 228.371 503.602 230.318 496.015C231.45 491.602 236.118 489.659 236.852 484.996C238.995 471.373 232.559 457.92 246.17 448.6C254.429 442.943 276.12 447 286 447L313 447C316.414 447.002 320.928 446.388 323.397 449.318C328.079 454.876 323.62 466.319 325.434 473C326.649 477.475 330.706 480.357 331.656 485C333.245 492.763 330.321 501.352 332.434 508.996C333.635 513.342 337.887 515.592 339.022 520.015C341.208 528.533 337.497 538.896 340.603 546.961C346.374 561.942 366.165 569.85 380.957 565.566C384.523 564.534 386.431 561.017 389 558.593C392.34 555.442 397.536 551.74 399.821 547.791C403.182 541.984 402.418 523.444 400.566 517.043C399.345 512.82 394.641 511.276 393.434 506.985C391.032 498.449 394.431 488.721 392.772 480.04C392.007 476.039 388.205 474.479 386.742 470.907C384.778 466.114 386 459.096 386 454C386 450.045 386.901 444.697 384.972 441.089C383.134 437.65 379.332 435.992 378.318 431.996C376.221 423.73 379.195 414.418 377.852 406.015C377.099 401.307 372.107 399.667 371.228 394.985C369.641 386.528 372.359 377.472 370.772 369.015C369.946 364.617 365.413 363.108 364.318 358.957C362.146 350.72 365.305 341.377 363.772 333.001C362.834 327.881 357.56 325.825 356.318 320.985C354.201 312.736 357.19 303.408 355.852 295.015C355.118 290.409 350.438 288.419 349.318 283.996C347.217 275.703 350.348 266.417 348.772 258.015C347.81 252.89 342.189 251.196 341.228 245.996C340.024 239.473 343.43 229.963 339.397 224.286C335.813 219.239 327.75 210.053 321.961 207.742C316.104 205.405 307.23 207 301 207C284.942 207 262.322 202.875 247 207.653z"/>
<path style="fill:#fffcfd; stroke:none;" d="M232 218C230.672 225.151 225.436 229.877 224.228 236.054C222.877 242.968 225.968 251.334 223.258 257.945C221.989 261.04 218.26 262.059 217.318 265.224C214.74 273.883 218.501 284.121 216.656 292.996C215.645 297.858 210.542 298.848 209.318 303.133C206.924 311.509 210.197 321.404 208.852 329.999C208.127 334.631 203.485 335.989 202.318 340.129C199.94 348.565 203.353 358.377 201.772 366.999C200.86 371.968 195.788 372.863 194.434 377.143C191.72 385.718 195.254 396.145 193.852 404.995C193.132 409.544 188.465 410.187 187.318 414.143C184.688 423.215 189.204 433.851 186.566 442.957C185.558 446.436 182.006 447.343 180.603 450.39C177.04 458.124 181.375 469.661 179.656 477.999C178.009 485.987 172.001 487.72 172 497C171.999 505.701 175.14 519.467 165 523C165 535.978 167.208 555.101 181.274 561.397C187.142 564.024 197.611 562 204 562C206.477 554.891 215.395 552.191 218.397 545.701C220.375 541.424 218.395 535.578 219.344 531.004C220.197 526.895 223.706 525.35 225.258 521.791C227.18 517.385 226 510.717 226 506C226 499.088 224.945 490.335 233 488C234.171 478.736 230.301 459.582 236.415 452.375C250.257 436.058 283.218 443 303 443C309.268 443 321.802 440.724 326.258 446.303C331.219 452.515 326.223 463.685 328.434 470.871C329.783 475.258 334.215 477.072 335.227 482C336.944 490.359 334.045 499.768 336.318 507.871C337.461 511.944 341.945 513.492 342.772 518.001C344.348 526.597 340.885 536.465 343.318 544.857C345.303 551.703 355.535 554.923 358 562C364.438 562 374.808 563.998 380.741 561.397C397.046 554.247 399.438 534.502 396.852 519.055C396.109 514.615 391.089 513.563 390.228 508.985C388.551 500.059 392.166 489.867 389.682 481.133C388.461 476.838 383.68 476.038 383.109 470.996C382.142 462.464 385.045 452.399 382.682 444.133C381.541 440.141 376.633 439.233 375.434 434.985C372.861 425.869 375 413.461 375 404C359.6 398.702 374.232 377.407 366.4 367.594C357.686 356.675 361.185 347.473 359.941 334.044C359.484 329.1 354.139 327.909 353.228 322.995C351.602 314.221 354.337 304.845 352.852 296.058C352.1 291.611 346.878 290.465 345.573 285.995C343.079 277.461 346.304 267.754 344.852 259.054C344.131 254.734 339.399 253.244 338.318 248.995C336.638 242.395 340.345 233.604 337.397 227.414C334.278 220.868 325.49 218.24 323 211L250.043 211.059L232 218z"/>
<path style="fill:#fec99d; stroke:none;" d="M299 325C299 315.587 299.01 306.359 298.074 297C297.461 290.876 292.713 289.248 291.318 283.957C289.985 278.903 292.939 271.761 289.258 267.434C285.925 263.516 274.935 263.721 272.179 268.228C268.06 274.965 272.206 286.438 270.656 294C269.695 298.688 265.445 301.468 264.318 306C262.415 313.649 264.918 322.197 263.556 330C262.609 335.427 258.268 338.107 256.653 343.039C255.075 347.859 256 353.988 256 359C256 363.365 256.821 368.706 255.682 372.945C254.495 377.363 243.075 384.364 253.059 388.397C264.617 393.065 285.515 389 298 389C302.337 389 309.343 390.293 311.972 385.852C318.189 375.352 308.543 367.28 306.318 358.946C303.731 349.254 311.855 328.698 299 325z"/>
<path style="fill:#e4a774; stroke:none;" d="M277.148 269.028C269.245 273.688 276.248 292.434 273.258 299.961C271.878 303.433 268.267 305.297 267.318 309.015C265.286 316.976 268.111 325.891 266.532 333.999C265.59 338.834 261.457 341.483 260.317 346.015C258.542 353.071 260.212 361.745 259.985 369C259.841 373.564 252.392 380.584 253.497 383.606C254.844 387.29 263.051 386 266 386L296 386C299.389 386 304.713 386.954 307.682 384.972C316.358 379.183 303.787 366.087 303.109 360C302.187 351.722 304.08 343.203 302.177 335.004C300.934 329.652 296.081 326.489 295.214 321C293.232 308.452 295.317 300.581 289.441 288.911C286.813 283.689 290.252 261.301 277.148 269.028z"/>
<path style="fill:#fc971b; stroke:none;" d="M276 270C276 279.656 277.313 290.588 274.697 299.996C273.478 304.38 268.88 306.422 268.148 311.015C266.811 319.401 269.839 328.772 267.566 336.996C266.366 341.34 261.87 343.474 261.148 348.015C259.276 359.782 265.592 374.229 254 382L254 384C266.196 387.605 282.289 385 295 385C298.983 385 306.413 386.415 308.397 381.852C311.482 374.753 304.36 369.924 302.344 364C299.161 354.647 302.678 344.489 300.656 335.039C299.655 330.361 295.099 327.784 294.228 323C292.863 315.499 295.316 307.456 293.606 300C292.562 295.449 288.625 292.443 287.433 288C284.556 277.28 290.59 270.002 276 270z"/>
<path style="fill:#e4a774; stroke:none;" d="M739 486C739.696 492.102 747.898 500.304 754 501C754 508.994 756.614 522.435 753.397 529.776C749.67 538.279 741.941 537.691 735.224 540.742C732.172 542.129 731.384 545.758 727.945 546.682C714.815 550.21 696.616 547 683 547C668.951 547 635.95 541.532 635.019 563C634.822 567.549 634.137 573.55 635.434 577.945C640.223 594.178 663.361 590 676 590C691.688 590 712.831 586.237 727.945 590.318C731.199 591.196 731.882 594.246 734.414 596.012C737.607 598.239 742.619 596.804 745.397 599.603C747.601 601.823 746.544 605.27 747.603 607.946C748.802 610.975 752.171 612.161 753.397 615.129C755.016 619.05 754 624.817 754 629C745.912 629.923 746.019 637.23 746 644L734.414 645.178L727.945 650.682L693 651C690.736 639.913 680.588 646.559 673.143 643.397C670.562 642.3 669.852 639.453 667.701 637.857C664.8 635.704 661.258 636.727 658.143 635.398C653.774 633.534 653.416 629.61 648 629C647.04 620.48 642.048 623.907 636.143 621.397C632.605 619.892 632.077 615.383 627.982 614.478C621.914 613.135 621.314 619.531 616.867 621.397C613.816 622.677 610.134 621.257 607.434 623.603C603.616 626.921 605 634.51 605 639C605 655.913 617.146 672 635 672C635.948 680.31 641.062 677.139 646.857 679.603C649.706 680.815 650.474 684.183 653.143 685.682C655.901 687.23 658.987 686.504 661.892 687.316C665.707 688.384 666.934 692.63 671.018 693.606C687.83 697.62 709.697 694 727 694C733.289 694 743.026 695.824 748.857 693.258C751.359 692.156 752.064 689.396 754.299 688.024C757.163 686.266 760.86 687.557 763.776 685.821C771.186 681.41 777.291 671.567 783.49 665.541C787.443 661.698 794.137 657.205 796.258 651.957C798.411 646.627 797 638.669 797 633L797 590L865 590L865 650C865 657.427 862.831 669.122 866.434 675.857C867.872 678.544 871.196 679.319 872.397 682.143C873.841 685.541 872.098 689.684 875.318 692.397C878.44 695.027 884.22 694 888 694C898.416 694 910.13 694.29 915.107 682.867C917.297 677.84 916 670.374 916 665L916 625L916 486C924.769 486 942.141 489.337 949.776 484.822C964.9 475.878 962.98 454.747 950.701 444.719C940.225 436.163 929.827 436 917 436L866 436C858.616 436 849.148 434.427 842.015 436.434C838.406 437.449 837.05 441.02 833.791 442.397C830.746 443.684 827.163 442.385 824.228 444.179C820.049 446.735 821 452.839 821 457C820.999 468.328 820.356 478.169 831.274 484.822C838.741 489.372 856.356 486 865 486L865 547L795 547C798.056 537.36 797 527.017 797 517C797 507.202 798.701 495.611 796.656 486.018C795.745 481.743 792.022 481.157 790.027 477.776C788.458 475.117 789.567 471.895 788.397 469.143C786.483 464.644 775.917 454.652 771.701 452.027C768.836 450.243 765.132 451.689 762.224 449.973C758.843 447.978 758.257 444.255 753.982 443.344C748.178 442.107 741.623 444.368 736 442.258C732.01 440.761 729.309 437.422 725 436.483C712.939 433.854 698.33 436 686 436C679.023 436 670.545 434.748 664 437.652C645.775 445.738 629.787 471.587 653.143 484.973C656.619 486.965 662.145 486 666 486L696 486L739 486z"/>
<path style="fill:#6d5b4a; stroke:none;" d="M670 442.8C653.636 448.079 633.837 463.316 653.424 479.697C658.701 484.109 669.497 482 676 482C694.079 482 718.605 477.62 735.996 482.434C740.158 483.586 742.983 487.573 746 490.424C759.952 503.608 765.396 528.055 747.625 541.262C744.751 543.398 741.122 542.401 738.089 544.028C734.995 545.687 733.364 549.121 729.985 550.397C724.371 552.516 715.946 551 710 551C691.821 551 667.586 546.725 650.039 551.318C640.547 553.803 638.664 563.833 639.019 571.999C639.822 590.47 663.672 587 676 587C705.332 587 746.44 579.446 757.347 614.004C760.444 623.816 755.068 627.506 751.027 635.089C749.421 638.104 750.53 641.928 748.258 644.682C745.654 647.839 741.358 646.279 738.089 648.028C734.993 649.684 733.365 653.121 729.985 654.397C722.402 657.259 702.817 656.755 695.015 654.566C690.72 653.362 689.085 648.675 684.907 647.434C680.76 646.202 676.201 647.784 672.043 646.682C668.717 645.8 667.591 642.632 664.791 641.027C662.1 639.485 658.789 640.407 656.039 638.972C650.766 636.221 647.717 629.947 642.83 626.599C640.131 624.75 636.856 625.43 634.039 623.973C631.714 622.77 629.756 619.207 626.95 619.207C624.094 619.207 622.24 622.74 619.911 623.973C617.049 625.488 613.009 624.197 610.603 626.603C608.019 629.188 609 634.694 609 638C609 650.642 614.374 659.004 625.17 666.401C632.341 671.313 642.387 672.941 649.896 677.027C658.25 681.573 668.078 688.727 678 690.536C689.734 692.674 703.085 691 715 691C723.633 691 736.873 693.501 744.961 690.397C748.239 689.138 749.972 685.782 753.039 684.179C755.739 682.768 759.021 683.411 761.625 681.822C772.08 675.441 783.356 661.558 790.529 651.714C793.972 646.99 793 640.529 793 635C793 622.855 789.239 603.343 793.603 592.019C796.115 585.503 804.435 587 810 587C826.792 587 846.498 584.127 862.985 587.228C872.476 589.014 869 606.905 869 614L869 655C869 660.226 867.595 667.929 869.742 672.791C870.903 675.418 873.699 676.758 875.262 679.104C877.297 682.161 876.023 686.817 878.603 689.397C881.916 692.708 896.798 692 900.961 690.397C918.118 683.788 912 654.335 912 640L912 526C912 516.54 907.715 492.434 914.318 485.228C924.607 474 951.166 491.765 956.682 470.957C960.94 454.895 948.447 448.541 936 443.87C927.597 440.716 917.868 442 909 442L858 442C848.729 442 843.567 443.703 835 446.348C832.333 447.172 828.734 446.487 826.603 448.603C823.989 451.199 824.099 457.561 824.015 461C823.938 464.127 823.483 468.007 824.603 470.985C829.292 483.444 842.384 482 853 482C858.014 482 864.904 480.927 867.821 486.109C870.103 490.163 869 496.517 869 501L869 535C869 539.658 870.16 546.105 865.852 549.258C861.225 552.644 852.425 551 847 551C830.576 551 811.057 553.886 795 550.366C784.639 548.094 792.899 540.931 792.996 534C793.177 521.03 797.136 499.132 792.397 487.089C777.467 449.159 738.261 442 701 442C691.528 442 679.056 439.879 670 442.8z"/>
<path style="fill:#fec99d; stroke:none;" d="M14 767L14 768C20.093 771.36 17.1524 778.189 18.2284 783.995C19.2546 789.533 27.6218 797.161 33 798C29.489 793.893 22.8189 789.847 20.7423 784.896C18.0335 778.437 23.5594 768.525 14 767M33 798C34.2566 804.159 41.8408 811.743 48 813L48 812L33 798M48 813C49.9168 825.277 64.8098 825.848 73.9452 828.318C77.6258 829.313 78.5155 833.47 82.108 834.566C92.92 837.865 108.696 835 120 835L352 835L352 834L176 834L116 834L86.0039 833.772L76.7909 827.027L63 824L48 813M352 835L353 836L352 835M353 836C353 851.896 351.007 869.26 353.189 885C353.863 889.859 357.756 891.867 359.397 896.089C361.451 901.37 360 909.392 360 915C360 926.004 355.847 943.122 368 948C366.186 945.122 363.019 943.247 361.742 939.985C356.633 926.933 362.963 908.809 360.786 895C359.529 887.028 354.003 882.758 354 874C353.996 863.101 357.209 846.031 353 836z"/>
<path style="fill:#6d5b4a; stroke:none;" d="M357 836C357 850.179 353.982 868.406 358 882C361.18 881.415 364.676 881.219 365.667 885.109C366.656 888.986 365.02 893.988 365.001 898C364.939 910.828 363.932 924.221 365.059 936.996C365.508 942.093 370.243 943.505 371.566 948.043C375.514 961.586 382.505 971.726 392.41 982.244C395.866 985.914 400.831 993.004 406.043 993.852C416.928 995.622 417.417 986.753 426 985C427.247 980.28 429.072 978.376 434 978C434.371 973.121 436.184 970.983 441 970C441.831 964.681 445.093 965.112 447.821 961.416C451.967 955.799 446.217 949.103 456 948C456.373 943.108 458.108 941.373 463 941C464.113 935.944 465.679 933.6 471 933C471.539 928.22 473.161 926.374 478 926C478.827 920.848 480.848 918.828 486 918C486.373 913.108 488.108 911.373 493 911C493.415 905.565 502.603 896.843 508 896C508.539 891.22 510.161 889.374 515 889C515.823 883.864 517.757 881.591 523 881C523.168 873.115 529.376 859.657 538 859C538.495 852.505 551.318 840.115 557 837L538 836L498 836L357 836M558 836L559 837L558 836z"/>
<path style="fill:#fc971b; stroke:none;" d="M359 881L365 891C367.467 885.119 365.209 881.344 359 881z"/>
<path style="fill:#fec99d; stroke:none;" d="M368 948C368 954.805 367.407 959.994 375 962L375 961L368 948z"/>
<path style="fill:#e4a774; stroke:none;" d="M1015 950C1014.16 953.526 1014.88 958.633 1012.97 961.701C1008.98 968.116 998.183 971.153 1000 980L1002 980C1008.04 972.408 1025.99 960.759 1015 950z"/>
<path style="fill:#fec99d; stroke:none;" d="M375 962C375.001 969.9 375.478 974.211 383 978L375 962M383 978C385.454 989.356 401.451 998.999 412 999L412 998C399.242 997.963 392.11 985.817 383 978z"/>
<path style="fill:#e4a774; stroke:none;" d="M964 1002L964 1004C975.889 1006.83 989.259 997.76 993 986C983.808 986.299 981.742 995.708 974.726 999.973C971.775 1001.77 967.311 1001.02 964 1002z"/>
<path style="fill:#fec99d; stroke:none;" d="M412 999C413.991 1008.63 424.509 1002.8 427 1011L429 1011C427.948 1004.4 417.255 1003.09 412 999z"/>
</svg>
