<svg xmlns="http://www.w3.org/2000/svg" version="1.1" xmlns:xlink="http://www.w3.org/1999/xlink" width="512" height="512" x="0" y="0" viewBox="0 0 68 68" style="enable-background:new 0 0 512 512" xml:space="preserve" class=""><g><path d="M57.2 42.3c1.5 0 2.6-1.2 2.6-2.6V38c0-1.5-1.2-2.6-2.6-2.6h-10c-.3-1.7 1 6.1-2.6-16.5-.8-4.8-4.7-8.6-9.7-9V8.3L40 5.7c.3-.2.6-.5.6-.9s-.2-.7-.6-.9L34.2 1c-.5-.2-1.2.3-1.2 1v7.8c-4.9.5-8.9 4.1-9.7 9-3.5 22.7-2.3 14.8-2.6 16.5h-10c-1.4 0-2.6 1.2-2.6 2.6v1.6c0 1.4 1.2 2.6 2.6 2.6H12V60h-1.2c-1.4 0-2.6 1.2-2.6 2.6v1.6c0 1.4 1.2 2.6 2.6 2.6h46.4c1.5 0 2.6-1.2 2.6-2.6v-1.6c0-1.5-1.2-2.6-2.6-2.6H56V42.3zM35 3.6l2.5 1.2L35 6.1zm16.2 38.7H54v17.9h-2.8zm-7.4 0v17.9h-3.7V48.5c0-1.7-1.4-3-3-3H31c-1.7 0-3 1.4-3 3v11.7h-3.7V42.3zm-13.4-6.9 1.3-11h4.4l1.4 11zm15.4 6.9h3.4V45h-3.4zm0 4.7h3.4v3.2h-3.4zm0 5.2h3.4v3.2h-3.4zm0 5.2h3.4v2.7h-3.4zm-.6-22h-5.7l-1.4-11h5.3zM34 11.8c3.8 0 7.3 2.5 8.4 6.2H25.6c1.1-3.6 4.5-6.2 8.4-6.2zm-9.5 12.6h5.3l-1.4 11h-5.7zm-5.7 17.9h3.4V45h-3.4zm0 4.7h3.4v3.2h-3.4zm0 5.2h3.4v3.2h-3.4zm0 5.2h3.4v2.7h-3.4zM14 42.3h2.8v17.9H14V42.3z" fill="#f97a04" opacity="1" data-original="#000000" class=""></path></g></svg>