<svg xmlns="http://www.w3.org/2000/svg" width="19.014" height="18.226" viewBox="0 0 19.014 18.226">
  <g id="Namaste" transform="translate(0 -0.989)">
    <path id="Path_2974" data-name="Path 2974" d="M8.318,8.14a.792.792,0,0,0-.792.792v2.377a.4.4,0,0,1-.792,0V8.932A1.584,1.584,0,0,1,8.4,7.348c.04-.04,0,.051.6-5.355a.887.887,0,0,0-1.7-.436L5.106,6.892c-.471,1.121-.305,1.584,0,6.251a.792.792,0,0,1-.459.772L0,16.063l4.357,3.169,3.9-3.248c1.105-.919.856-1.529.856-7.051A.792.792,0,0,0,8.318,8.14Z" transform="translate(0 -0.017)" fill="#f6ab33"/>
    <path id="Path_2975" data-name="Path 2975" d="M29.438,13.9a.792.792,0,0,1-.459-.772l.3-4.48c.079-1.216-.139-1.394-2.488-7.1a.883.883,0,0,0-1.7.333c0,.04.562,5.419.6,5.458a1.584,1.584,0,0,1,1.668,1.581v2.377a.4.4,0,0,1-.792,0V8.916a.792.792,0,0,0-1.351-.559c-.325.313-.234.151-.234,5.783a2.377,2.377,0,0,0,.856,1.826l3.9,3.248,4.357-3.169Z" transform="translate(-15.079 0)" fill="#f6ab33"/>
  </g>
</svg>
