<svg xmlns="http://www.w3.org/2000/svg" width="22.653" height="25.536" viewBox="0 0 22.653 25.536">
  <g id="About" transform="translate(-64 -866.378)">
    <g id="temple" transform="translate(27.5 850.271)">
      <g id="Group_16964" data-name="Group 16964" transform="translate(36.5 17.607)">
        <path id="Path_4519" data-name="Path 4519" d="M187.163,39.8l-.326-2.186a.045.045,0,0,0-.035-.014c-.007,0-.028,0-.035.014l-.406,2.186Z" transform="translate(-175.475 -37.6)" fill="#fff" fill-rule="evenodd"/>
        <path id="Path_4522" data-name="Path 4522" d="M37.593,223,36.5,224.148H59.153L58.067,223H37.593Z" transform="translate(-36.5 -210.176)" fill="#fff" fill-rule="evenodd"/>
        <path id="Path_4523" data-name="Path 4523" d="M276.839,257.018V247.5H271.7v9.518Zm-2.566-6.848a1.464,1.464,0,0,1,1.473,1.473V255a.277.277,0,0,1-.277.277h-2.4a.277.277,0,0,1-.277-.277V251.65A1.486,1.486,0,0,1,274.273,250.17Z" transform="translate(-255.431 -232.981)" fill="#fff" fill-rule="evenodd"/>
        <path id="Path_4526" data-name="Path 4526" d="M297.254,294.927a.938.938,0,0,0-.27-.657.929.929,0,0,0-1.584.657v3.085h1.854Z" transform="translate(-277.492 -276.265)" fill="#fff" fill-rule="evenodd"/>
        <path id="Path_4527" data-name="Path 4527" d="M138.118,257.018v-4.8a2.981,2.981,0,1,1,5.963,0v4.8H145.5V247.5h-8.8v9.518Z" transform="translate(-129.769 -232.981)" fill="#fff" fill-rule="evenodd"/>
        <path id="Path_4528" data-name="Path 4528" d="M148.6,177.215h10.154l-.638-2.815h-8.878Zm5.077-2.082c.216,0,.393.124.393.277v.8c0,.152-.177.277-.393.277s-.393-.125-.393-.277v-.8C153.284,175.251,153.461,175.133,153.677,175.133Z" transform="translate(-142.347 -164.937)" fill="#fff" fill-rule="evenodd"/>
        <path id="Path_4529" data-name="Path 4529" d="M156.3,128.8h9.075L164.7,126h-7.742Zm4.548-2.075c.227,0,.413.125.413.277v.8c0,.152-.186.277-.413.277s-.413-.124-.413-.277V127C160.434,126.851,160.621,126.726,160.848,126.726Z" transform="translate(-149.514 -119.885)" fill="#fff" fill-rule="evenodd"/>
        <path id="Path_4530" data-name="Path 4530" d="M165.159,78.033,164.1,80.115h8.01l-1.2-2.082-.772-.733h-4.071Zm2.5.277c0-.152.2-.277.443-.277s.443.125.443.277v.8c0,.152-.2.277-.443.277s-.443-.125-.443-.277Z" transform="translate(-156.775 -74.554)" fill="#fff" fill-rule="evenodd"/>
        <path id="Path_4531" data-name="Path 4531" d="M169.25,281.212a2.431,2.431,0,0,0-4.15,1.715v4.8h4.863v-4.8A2.407,2.407,0,0,0,169.25,281.212Z" transform="translate(-156.205 -263.698)" fill="#fff" fill-rule="evenodd"/>
        <path id="Path_4532" data-name="Path 4532" d="M59.639,257.018V247.5H54.5v9.518Zm-2.566-6.855a1.464,1.464,0,0,1,1.473,1.473v3.355a.277.277,0,0,1-.277.277h-2.4a.277.277,0,0,1-.277-.277v-3.355A1.48,1.48,0,0,1,57.073,250.163Z" transform="translate(-53.255 -232.981)" fill="#fff" fill-rule="evenodd"/>
        <path id="Path_4535" data-name="Path 4535" d="M80.054,294.827a.938.938,0,0,0-.27-.657.929.929,0,0,0-1.584.657v3.085h1.854Z" transform="translate(-75.316 -276.172)" fill="#fff" fill-rule="evenodd"/>
      </g>
    </g>
    <path id="Path_23599" data-name="Path 23599" d="M-7146.256,3270.5h2.275l-1.555.675,1.555.787-2.275-.1Z" transform="translate(7221.583 -2404.122)" fill="#fff"/>
  </g>
</svg>
