<svg xmlns="http://www.w3.org/2000/svg" width="23.248" height="21.525" viewBox="0 0 23.248 21.525">
  <path id="Contact" d="M25.683,38.51H39.525L31.3,44.146l-5.592-3.834a2.463,2.463,0,0,0-.028-1.8Zm-3.62,3.271,2.018-1.229a1.293,1.293,0,0,0,.447-1.75l-1.822-3.155a1.292,1.292,0,0,0-1.852-.418l-3.322,2.287c-1.581,5.571,5.525,17.633,10.974,19.008l3.642-1.733a1.292,1.292,0,0,0,.564-1.813L30.89,49.824a1.293,1.293,0,0,0-1.739-.488L27.079,50.47a19.747,19.747,0,0,1-5.016-8.688ZM40.53,39.235l-8.9,6.1a.583.583,0,0,1-.669-.008l-5.907-4.05a2.46,2.46,0,0,1-.368.274l-1.276.777a20.087,20.087,0,0,0,3.868,6.7l1.311-.717a2.463,2.463,0,0,1,3.311.929l1.13,1.957h6.58a.947.947,0,0,0,.945-.945v-10.8a.938.938,0,0,0-.026-.22Z" transform="translate(-17.308 -35)" fill="#fff" fill-rule="evenodd"/>
</svg>
