<svg xmlns="http://www.w3.org/2000/svg" width="19.577" height="19.578" viewBox="0 0 19.577 19.578">
  <path id="Setting" d="M18.5,7.663,16.97,7.468a7.709,7.709,0,0,0-.464-1.121l.947-1.22a1.213,1.213,0,0,0-.1-1.614L16.069,2.229a1.216,1.216,0,0,0-1.619-.1l-1.218.947a7.681,7.681,0,0,0-1.122-.464l-.195-1.531A1.222,1.222,0,0,0,10.7,0H8.875A1.222,1.222,0,0,0,7.663,1.074L7.468,2.608a7.592,7.592,0,0,0-1.122.464L5.128,2.125a1.214,1.214,0,0,0-1.614.1L2.229,3.509a1.216,1.216,0,0,0-.1,1.62l.947,1.219a7.619,7.619,0,0,0-.464,1.121l-1.531.195A1.222,1.222,0,0,0,0,8.875V10.7a1.222,1.222,0,0,0,1.074,1.212l1.534.195a7.709,7.709,0,0,0,.464,1.121l-.947,1.22a1.213,1.213,0,0,0,.1,1.614l1.285,1.285a1.217,1.217,0,0,0,1.619.1L6.347,16.5a7.531,7.531,0,0,0,1.121.464l.195,1.53a1.222,1.222,0,0,0,1.212,1.078H10.7A1.222,1.222,0,0,0,11.915,18.5l.195-1.534a7.709,7.709,0,0,0,1.121-.464l1.22.947a1.213,1.213,0,0,0,1.614-.1l1.285-1.285a1.215,1.215,0,0,0,.1-1.619l-.947-1.219a7.531,7.531,0,0,0,.464-1.121l1.53-.195A1.222,1.222,0,0,0,19.577,10.7V8.875A1.22,1.22,0,0,0,18.5,7.663Zm-8.715,6.2a4.079,4.079,0,1,1,4.079-4.079,4.083,4.083,0,0,1-4.079,4.079Z" fill="#fff"/>
</svg>
