<svg xmlns="http://www.w3.org/2000/svg" width="34.02" height="38.006" viewBox="0 0 34.02 38.006">
  <g id="Login_icon" data-name="Login icon" transform="translate(-24.165)">
    <g id="Group_19302" data-name="Group 19302" transform="translate(24.165)">
      <g id="Group_19301" data-name="Group 19301" transform="translate(0)">
        <path id="Path_23608" data-name="Path 23608" d="M120.66,19.735a9.868,9.868,0,1,0-9.868-9.868A9.894,9.894,0,0,0,120.66,19.735Z" transform="translate(-103.647)" fill="#f17b28"/>
        <path id="Path_23609" data-name="Path 23609" d="M58.112,255.02a9.2,9.2,0,0,0-.991-1.81,12.265,12.265,0,0,0-8.489-5.343,1.816,1.816,0,0,0-1.25.3,10.518,10.518,0,0,1-12.41,0,1.617,1.617,0,0,0-1.25-.3,12.176,12.176,0,0,0-8.489,5.343,10.606,10.606,0,0,0-.991,1.81.916.916,0,0,0,.043.819,17.188,17.188,0,0,0,1.163,1.724,16.375,16.375,0,0,0,1.982,2.241,25.826,25.826,0,0,0,1.982,1.724,19.65,19.65,0,0,0,23.441,0,18.943,18.943,0,0,0,1.982-1.724,19.9,19.9,0,0,0,1.982-2.241,15.1,15.1,0,0,0,1.163-1.724A.735.735,0,0,0,58.112,255.02Z" transform="translate(-24.165 -227.399)" fill="#f17b28"/>
      </g>
    </g>
  </g>
</svg>
