<svg xmlns="http://www.w3.org/2000/svg" width="20.235" height="22.074" viewBox="0 0 20.235 22.074">
  <g id="Share" transform="translate(0 0)">
    <path id="Path_23600" data-name="Path 23600" d="M320.646,18.989A2.989,2.989,0,1,1,317.657,16,2.989,2.989,0,0,1,320.646,18.989Zm0,0" transform="translate(-301.101 -15.31)" fill="#fff"/>
    <path id="Path_23601" data-name="Path 23601" d="M302.347,7.358a3.679,3.679,0,1,1,3.679-3.679A3.683,3.683,0,0,1,302.347,7.358Zm0-5.979a2.3,2.3,0,1,0,2.3,2.3,2.3,2.3,0,0,0-2.3-2.3Zm0,0" transform="translate(-285.791)" fill="#fff"/>
    <path id="Path_23602" data-name="Path 23602" d="M320.646,360.321a2.989,2.989,0,1,1-2.989-2.989A2.989,2.989,0,0,1,320.646,360.321Zm0,0" transform="translate(-301.101 -341.926)" fill="#fff"/>
    <path id="Path_23603" data-name="Path 23603" d="M302.347,348.69a3.679,3.679,0,1,1,3.679-3.679A3.683,3.683,0,0,1,302.347,348.69Zm0-5.979a2.3,2.3,0,1,0,2.3,2.3A2.3,2.3,0,0,0,302.347,342.712Zm0,0" transform="translate(-285.791 -326.616)" fill="#fff"/>
    <path id="Path_23604" data-name="Path 23604" d="M21.979,189.657a2.989,2.989,0,1,1-2.989-2.989A2.989,2.989,0,0,1,21.979,189.657Zm0,0" transform="translate(-15.31 -178.62)" fill="#fff"/>
    <path id="Path_23605" data-name="Path 23605" d="M3.679,178.026a3.679,3.679,0,1,1,3.679-3.679,3.683,3.683,0,0,1-3.679,3.679Zm0-5.978a2.3,2.3,0,1,0,2.3,2.3,2.3,2.3,0,0,0-2.3-2.3Zm0,0" transform="translate(0 -163.31)" fill="#fff"/>
    <path id="Path_23606" data-name="Path 23606" d="M115.269,96.921a.92.92,0,0,1-.456-1.719l8.534-4.866a.92.92,0,1,1,.911,1.6L115.723,96.8a.914.914,0,0,1-.454.121Zm0,0" transform="translate(-109.418 -86.325)" fill="#fff"/>
    <path id="Path_23607" data-name="Path 23607" d="M123.825,272.925a.914.914,0,0,1-.454-.121l-8.535-4.866a.92.92,0,0,1,.911-1.6l8.535,4.866a.92.92,0,0,1-.456,1.719Zm0,0" transform="translate(-109.44 -254.741)" fill="#fff"/>
  </g>
</svg>
