<svg xmlns="http://www.w3.org/2000/svg" width="13.326" height="15.992" viewBox="0 0 13.326 15.992">
  <g id="Notification_Bell" data-name="Notification Bell" transform="translate(-2)">
    <path id="Path_522" data-name="Path 522" d="M14.913,11.269a4.463,4.463,0,0,1-1.585-3.415V6a4.668,4.668,0,0,0-4-4.611V.666A.666.666,0,0,0,8,.666v.72A4.667,4.667,0,0,0,4,6V7.855a4.468,4.468,0,0,1-1.591,3.42,1.166,1.166,0,0,0,.758,2.052H14.16a1.166,1.166,0,0,0,.752-2.057Z" fill="#ec6019"/>
    <path id="Path_523" data-name="Path 523" d="M10.774,23a2.5,2.5,0,0,0,2.448-2h-4.9A2.5,2.5,0,0,0,10.774,23Z" transform="translate(-2.111 -7.007)" fill="#ec6019"/>
  </g>
</svg>
