<svg xmlns="http://www.w3.org/2000/svg" width="11.382" height="13.659" viewBox="0 0 11.382 13.659">
  <path id="Reports" d="M11.817,0H3.565A1.566,1.566,0,0,0,2,1.565V12.094a1.566,1.566,0,0,0,1.565,1.565h8.252a1.566,1.566,0,0,0,1.565-1.565V1.565A1.566,1.566,0,0,0,11.817,0ZM6.98,7.4V4.6A2.839,2.839,0,1,1,4.872,9.683L6.855,7.7a.425.425,0,0,0,.125-.3ZM6.126,4.6V7.222L4.269,9.079A2.822,2.822,0,0,1,6.126,4.6Zm5.122,7.5H4.134a.427.427,0,0,1,0-.854h7.114a.427.427,0,1,1,0,.854Zm0-1.85h-.854a.427.427,0,1,1,0-.854h.854a.427.427,0,1,1,0,.854Zm0-1.565h-.854a.427.427,0,0,1,0-.854h.854a.427.427,0,0,1,0,.854Zm0-1.707h-.854a.427.427,0,0,1,0-.854h.854a.427.427,0,0,1,0,.854Zm0-1.565h-.854a.427.427,0,0,1,0-.854h.854a.427.427,0,0,1,0,.854Z" transform="translate(-2)" fill="#f3822c"/>
</svg>
