<svg xmlns="http://www.w3.org/2000/svg" width="347" height="38" viewBox="0 0 347 38">
  <g id="Sarv_Mangal_Text" data-name="Sarv Mangal Text" transform="translate(-46 -307)">
    <path id="Path_23610" data-name="Path 23610" d="M-111.314-8.526h-1.372V0h-2.2V-4.2h-5.208v1.372a1.24,1.24,0,0,0,.231.777.8.8,0,0,0,.679.3.8.8,0,0,0,.651-.28,1.085,1.085,0,0,0,.231-.714v-.182h2.114a2.855,2.855,0,0,1,.014.308,2.613,2.613,0,0,1-.791,2,3.056,3.056,0,0,1-2.177.742,3.409,3.409,0,0,1-1.7-.4A2.606,2.606,0,0,1-121.9-1.365a3.389,3.389,0,0,1-.357-1.575V-5.768h1.036a2.039,2.039,0,0,0,1.533-.483,1.893,1.893,0,0,0,.455-1.351v-.924h-4.144V-10.36h12.068Zm-3.57,0h-2.156V-7.6a3.678,3.678,0,0,1-.336,1.61h2.492Zm13.5-1.834v1.834h-1.372V0H-104.9V-1.876a2.386,2.386,0,0,1-.917.749,2.955,2.955,0,0,1-1.267.259,3.135,3.135,0,0,1-1.673-.434,2.857,2.857,0,0,1-1.085-1.2,3.887,3.887,0,0,1-.378-1.736,3.605,3.605,0,0,1,.378-1.673,2.8,2.8,0,0,1,1.092-1.155,3.225,3.225,0,0,1,1.666-.42,3.038,3.038,0,0,1,1.26.252,2.365,2.365,0,0,1,.924.728V-8.526h-6.3V-10.36Zm-5.1,7.742a1.491,1.491,0,0,0,1.162-.462,1.57,1.57,0,0,0,.42-1.092v-.014a1.538,1.538,0,0,0-.42-1.092,1.515,1.515,0,0,0-1.162-.448,1.572,1.572,0,0,0-1.141.427,1.48,1.48,0,0,0-.441,1.113,1.52,1.52,0,0,0,.441,1.134A1.557,1.557,0,0,0-106.484-2.618Zm1.68-7.392v-1.246a3.549,3.549,0,0,1,.644-2.163,2.484,2.484,0,0,1,2.142-.875,2.668,2.668,0,0,1,2.058.77,2.743,2.743,0,0,1,.644,2.1h-1.918a1.256,1.256,0,0,0-.182-.777.648.648,0,0,0-.56-.273.656.656,0,0,0-.6.294,1.685,1.685,0,0,0-.189.9v1.274Zm19.362,1.484h-1.372V0h-2.212V-4.7h-1.806v.658A3.339,3.339,0,0,1-91.609-1.7a2.9,2.9,0,0,1-2.247.847,3.554,3.554,0,0,1-1.61-.35A2.529,2.529,0,0,1-96.544-2.2a2.9,2.9,0,0,1-.378-1.5,2.517,2.517,0,0,1,.889-2.086A3.5,3.5,0,0,1-93.772-6.5h.9v-2.03H-97.72V-10.36h12.278Zm-3.584,0h-1.806V-6.5h1.806ZM-92.876-4.7h-.84a1.276,1.276,0,0,0-.84.266.909.909,0,0,0-.322.742.946.946,0,0,0,.273.721.985.985,0,0,0,.707.259.916.916,0,0,0,.756-.329,1.373,1.373,0,0,0,.266-.889Zm6.23-7.952a1.218,1.218,0,0,1-.378.9,1.252,1.252,0,0,1-.91.371,1.229,1.229,0,0,1-.9-.371,1.229,1.229,0,0,1-.371-.9,1.229,1.229,0,0,1,.371-.9,1.229,1.229,0,0,1,.9-.371,1.252,1.252,0,0,1,.91.371A1.218,1.218,0,0,1-86.646-12.656Zm13.2,2.3v1.834h-1.372V0h-2.2V-8.526h-1.764v3.164a3.2,3.2,0,0,1-.714,2.17,2.7,2.7,0,0,1-2.156.826,2.983,2.983,0,0,1-2.17-.749,2.842,2.842,0,0,1-.77-2.135q0-.308.014-.448h2.128v.434q0,1.022.742,1.022.714,0,.714-1.036V-8.526h-4.34V-10.36Zm10.668,1.834v1.484a2.813,2.813,0,0,1,1.267,1.148,3.7,3.7,0,0,1,.469,1.932,3.88,3.88,0,0,1-.42,1.834A3.023,3.023,0,0,1-62.7-.875a3.992,3.992,0,0,1-1.967.455q-.28,0-.476-.014V-2.352l.378.028a1.424,1.424,0,0,0,1.092-.434,1.653,1.653,0,0,0,.406-1.176A1.638,1.638,0,0,0-63.595-5a1.13,1.13,0,0,0-.931-.406,1.064,1.064,0,0,0-.952.462,2.106,2.106,0,0,0-.308,1.19v.336h-1.82v-.336a2.113,2.113,0,0,0-.308-1.183,1.032,1.032,0,0,0-.924-.469,1.176,1.176,0,0,0-.952.4,1.609,1.609,0,0,0-.336,1.071,1.653,1.653,0,0,0,.406,1.176,1.424,1.424,0,0,0,1.092.434l.378-.028V-.434q-.2.014-.476.014a3.992,3.992,0,0,1-1.967-.455,3.023,3.023,0,0,1-1.239-1.253,3.879,3.879,0,0,1-.42-1.834,3.689,3.689,0,0,1,.434-1.862,2.84,2.84,0,0,1,1.155-1.134,3.4,3.4,0,0,1,1.6-.378,2.508,2.508,0,0,1,1.533.441,2.775,2.775,0,0,1,.9,1.155h.042a2.467,2.467,0,0,1,1.75-1.512V-8.526h-8.4V-10.36H-60.06v1.834Zm18.662,0h-1.372V0H-47.7V-4.7H-49.5v.658A3.339,3.339,0,0,1-50.281-1.7a2.9,2.9,0,0,1-2.247.847,3.554,3.554,0,0,1-1.61-.35A2.529,2.529,0,0,1-55.216-2.2a2.9,2.9,0,0,1-.378-1.5A2.517,2.517,0,0,1-54.7-5.782,3.5,3.5,0,0,1-52.444-6.5h.9v-2.03h-4.844V-10.36h12.278Zm-3.584,0H-49.5V-6.5H-47.7ZM-51.548-4.7h-.84a1.276,1.276,0,0,0-.84.266.909.909,0,0,0-.322.742.946.946,0,0,0,.273.721.985.985,0,0,0,.707.259.916.916,0,0,0,.756-.329,1.373,1.373,0,0,0,.266-.889Zm8.33,4.7V-8.526H-44.59V-10.36h4.942v1.834H-41.02V0Zm2.366-12.656a1.218,1.218,0,0,1-.378.9,1.252,1.252,0,0,1-.91.371,1.229,1.229,0,0,1-.9-.371,1.229,1.229,0,0,1-.371-.9,1.229,1.229,0,0,1,.371-.9,1.229,1.229,0,0,1,.9-.371,1.252,1.252,0,0,1,.91.371A1.218,1.218,0,0,1-40.852-12.656Zm13.2,2.3v1.834h-1.372V0h-2.2V-8.526h-1.764v3.164a3.2,3.2,0,0,1-.714,2.17,2.7,2.7,0,0,1-2.156.826,2.983,2.983,0,0,1-2.17-.749,2.842,2.842,0,0,1-.77-2.135q0-.308.014-.448h2.128v.434q0,1.022.742,1.022.714,0,.714-1.036V-8.526h-4.34V-10.36ZM-7.532-8.526H-8.918V0h-2.2V-2.184a2.9,2.9,0,0,1-1.12.763,4.256,4.256,0,0,1-1.582.273,3.746,3.746,0,0,1-2.667-.924,3.656,3.656,0,0,1-1.1-2.52,1.116,1.116,0,0,0-.385-.581A1.135,1.135,0,0,0-18.7-5.4a1.1,1.1,0,0,0-.973.462,2.07,2.07,0,0,0-.315,1.19v.336h-1.82v-.336a2.113,2.113,0,0,0-.308-1.183,1.032,1.032,0,0,0-.924-.469,1.176,1.176,0,0,0-.952.4,1.609,1.609,0,0,0-.336,1.071,1.653,1.653,0,0,0,.406,1.176,1.424,1.424,0,0,0,1.092.434l.378-.028V-.434q-.2.014-.476.014A3.992,3.992,0,0,1-24.9-.875a3.023,3.023,0,0,1-1.239-1.253,3.88,3.88,0,0,1-.42-1.834,3.689,3.689,0,0,1,.434-1.862,2.84,2.84,0,0,1,1.155-1.134,3.4,3.4,0,0,1,1.6-.378,2.508,2.508,0,0,1,1.533.441,2.775,2.775,0,0,1,.9,1.155h.042a2.511,2.511,0,0,1,2.52-1.6,2.6,2.6,0,0,1,1.274.315,2.389,2.389,0,0,1,.924.917,1.72,1.72,0,0,0,.84-1.708v-.714H-27.538V-10.36H-7.532Zm-3.584,0H-13.16v1.12a2.921,2.921,0,0,1-.546,1.848,2.392,2.392,0,0,1-1.722.826,1.687,1.687,0,0,0,.581,1.267,2.231,2.231,0,0,0,1.519.483,2.13,2.13,0,0,0,1.617-.623,2.245,2.245,0,0,0,.6-1.617Zm.126-1.764a10.929,10.929,0,0,0-.924-1.288,1.811,1.811,0,0,0-.721-.525,3.16,3.16,0,0,0-1.029-.133h-.728V-14h.686a5.915,5.915,0,0,1,1.862.259,3.257,3.257,0,0,1,1.337,1.008A15.437,15.437,0,0,1-8.932-10.29ZM4.34-14.5A9.265,9.265,0,0,1,9.6-13.314a3.81,3.81,0,0,1,1.7,3.3v.238H9.142v-.182a2.237,2.237,0,0,0-1.19-2.079A7.612,7.612,0,0,0,4.3-12.712a7.771,7.771,0,0,0-3.416.567A2.054,2.054,0,0,0-.294-10.36H1.078v1.834H-.294V0h-2.2V-8.526H-3.864V-10.36h1.372Q-2.3-14.5,4.34-14.5ZM3.99-4.018v.98a1.46,1.46,0,0,0,.259.9.976.976,0,0,0,.833.343.918.918,0,0,0,.742-.315,1.226,1.226,0,0,0,.266-.819V-3.15H8.218l.014.252A2.9,2.9,0,0,1,7.4-.7,3.132,3.132,0,0,1,5.138.1,3.36,3.36,0,0,1,2.674-.784a3.206,3.206,0,0,1-.9-2.394V-5.866H3.724A3.568,3.568,0,0,0,5.46-6.244,1.312,1.312,0,0,0,6.146-7.49a1.17,1.17,0,0,0-.259-.791.9.9,0,0,0-.721-.3.9.9,0,0,0-.721.3,1.192,1.192,0,0,0-.259.8q0,.322.014.476H2q-.014-.1-.028-.231a3.06,3.06,0,0,1-.014-.315,2.972,2.972,0,0,1,.392-1.526,2.663,2.663,0,0,1,1.12-1.043,3.683,3.683,0,0,1,1.694-.371A3.257,3.257,0,0,1,7.5-9.66a3.023,3.023,0,0,1,.875,2.31A2.978,2.978,0,0,1,7.3-4.865a4.3,4.3,0,0,1-2.751.847Zm9.072-6.342v1.834H11.69V0H9.464V-10.36Zm9.926,0v1.834H21.616V0H19.474V-1.876a2.386,2.386,0,0,1-.917.749,2.955,2.955,0,0,1-1.267.259A3.135,3.135,0,0,1,15.617-1.3a2.857,2.857,0,0,1-1.085-1.2,3.887,3.887,0,0,1-.378-1.736,3.606,3.606,0,0,1,.378-1.673A2.8,2.8,0,0,1,15.624-7.07a3.225,3.225,0,0,1,1.666-.42,3.038,3.038,0,0,1,1.26.252,2.365,2.365,0,0,1,.924.728V-8.526h-6.3V-10.36Zm-5.1,7.742a1.491,1.491,0,0,0,1.162-.462,1.57,1.57,0,0,0,.42-1.092v-.014a1.538,1.538,0,0,0-.42-1.092,1.515,1.515,0,0,0-1.162-.448,1.572,1.572,0,0,0-1.141.427,1.48,1.48,0,0,0-.441,1.113,1.52,1.52,0,0,0,.441,1.134A1.557,1.557,0,0,0,17.892-2.618ZM19.53-10.29a10.929,10.929,0,0,0-.924-1.288,1.811,1.811,0,0,0-.721-.525,3.16,3.16,0,0,0-1.029-.133h-.728V-14h.686a5.915,5.915,0,0,1,1.862.259,3.257,3.257,0,0,1,1.337,1.008,15.437,15.437,0,0,1,1.575,2.443ZM38.724-8.526H37.352V0h-2.2V-4.2H29.946v1.372a1.24,1.24,0,0,0,.231.777.8.8,0,0,0,.679.3.8.8,0,0,0,.651-.28,1.085,1.085,0,0,0,.231-.714v-.182h2.114a2.854,2.854,0,0,1,.014.308,2.613,2.613,0,0,1-.791,2A3.056,3.056,0,0,1,30.9.126a3.409,3.409,0,0,1-1.7-.4,2.606,2.606,0,0,1-1.064-1.092,3.389,3.389,0,0,1-.357-1.575V-5.768h1.036a2.039,2.039,0,0,0,1.533-.483A1.893,1.893,0,0,0,30.8-7.6v-.924H26.656V-10.36H38.724Zm-3.57,0H33V-7.6a3.678,3.678,0,0,1-.336,1.61h2.492Zm13.5-1.834v1.834H47.278V0H45.136V-1.876a2.386,2.386,0,0,1-.917.749,2.955,2.955,0,0,1-1.267.259A3.134,3.134,0,0,1,41.279-1.3a2.857,2.857,0,0,1-1.085-1.2,3.887,3.887,0,0,1-.378-1.736,3.606,3.606,0,0,1,.378-1.673A2.8,2.8,0,0,1,41.286-7.07a3.225,3.225,0,0,1,1.666-.42,3.038,3.038,0,0,1,1.26.252,2.365,2.365,0,0,1,.924.728V-8.526h-6.3V-10.36Zm-5.1,7.742a1.491,1.491,0,0,0,1.162-.462,1.57,1.57,0,0,0,.42-1.092v-.014a1.538,1.538,0,0,0-.42-1.092,1.515,1.515,0,0,0-1.162-.448,1.572,1.572,0,0,0-1.141.427,1.48,1.48,0,0,0-.441,1.113,1.52,1.52,0,0,0,.441,1.134A1.557,1.557,0,0,0,43.554-2.618ZM49.546,0V-8.526H48.174V-10.36h4.942v1.834H51.744V0ZM49.7-10.01v-1.246a3.549,3.549,0,0,1,.644-2.163,2.484,2.484,0,0,1,2.142-.875,2.668,2.668,0,0,1,2.058.77,2.743,2.743,0,0,1,.644,2.1H53.27a1.256,1.256,0,0,0-.182-.777.648.648,0,0,0-.56-.273.656.656,0,0,0-.6.294,1.685,1.685,0,0,0-.189.9v1.274Zm15.12-.35v1.834H63.448V0h-2.2V-2.66a2.753,2.753,0,0,1-1.141,1.078,3.889,3.889,0,0,1-1.9.434,4.371,4.371,0,0,1-2.093-.483,3.351,3.351,0,0,1-1.393-1.386,4.381,4.381,0,0,1-.49-2.121,6.4,6.4,0,0,1,.07-1.008h1.218a4.259,4.259,0,0,0,1.9-.35,1.227,1.227,0,0,0,.693-1.19.98.98,0,0,0-.224-.665.772.772,0,0,0-.616-.259.832.832,0,0,0-.644.259,1,1,0,0,0-.238.707,2.9,2.9,0,0,0,.056.49H54.46A3.943,3.943,0,0,1,54.4-7.7,2.833,2.833,0,0,1,54.8-9.226a2.473,2.473,0,0,1,1.05-.945,3.328,3.328,0,0,1,1.456-.315,3.13,3.13,0,0,1,1.505.35,2.5,2.5,0,0,1,1.015,1,3.032,3.032,0,0,1,.364,1.505A2.77,2.77,0,0,1,59.213-5.4a4.224,4.224,0,0,1-2.807.826h-.028a1.731,1.731,0,0,0,.616,1.141,2.33,2.33,0,0,0,1.554.455,2.866,2.866,0,0,0,1.372-.329,2.373,2.373,0,0,0,.973-.98,3.233,3.233,0,0,0,.357-1.575V-10.36Zm-3.416.35v-1.246a3.549,3.549,0,0,1,.644-2.163,2.484,2.484,0,0,1,2.142-.875,2.668,2.668,0,0,1,2.058.77,2.743,2.743,0,0,1,.644,2.1H64.974a1.256,1.256,0,0,0-.182-.777.648.648,0,0,0-.56-.273.656.656,0,0,0-.6.294,1.685,1.685,0,0,0-.189.9v1.274ZM80.556-8.526H79.184V0h-2.2V-4.2H71.778v1.372a1.24,1.24,0,0,0,.231.777.8.8,0,0,0,.679.3.8.8,0,0,0,.651-.28,1.085,1.085,0,0,0,.231-.714v-.182h2.114a2.855,2.855,0,0,1,.014.308,2.613,2.613,0,0,1-.791,2A3.056,3.056,0,0,1,72.73.126a3.409,3.409,0,0,1-1.7-.4,2.606,2.606,0,0,1-1.064-1.092,3.389,3.389,0,0,1-.357-1.575V-5.768h1.036a2.039,2.039,0,0,0,1.533-.483A1.893,1.893,0,0,0,72.632-7.6v-.924H68.488V-10.36H80.556Zm-3.57,0H74.83V-7.6a3.678,3.678,0,0,1-.336,1.61h2.492ZM81.452,0V-8.526H80.08V-10.36h4.942v1.834H83.65V0ZM92.568-14.476a9.246,9.246,0,0,1,3.4.546,4.376,4.376,0,0,1,2.058,1.54,4.014,4.014,0,0,1,.686,2.338v.238H96.558V-10a2.243,2.243,0,0,0-1.036-2.016,5.49,5.49,0,0,0-2.982-.672,5.665,5.665,0,0,0-2.8.56,2.073,2.073,0,0,0-1.05,1.764h1.386v1.834H88.7V0h-2.2V-8.526H85.134V-10.36h1.372a3.762,3.762,0,0,1,1.61-3.038A7.644,7.644,0,0,1,92.568-14.476Zm7.854,5.95h-1.33V0h-2.2V-2.324a2.934,2.934,0,0,1-1.183.91A4.243,4.243,0,0,1,94-1.092a3.71,3.71,0,0,1-2.261-.665,2.187,2.187,0,0,1-.9-1.869,1.9,1.9,0,0,1,.49-1.358,2.176,2.176,0,0,1,1.134-.658v-.042A2.556,2.556,0,0,1,91.217-6.5a2.283,2.283,0,0,1-.5-1.526,2.31,2.31,0,0,1,.735-1.792,2.682,2.682,0,0,1,1.883-.672,2.539,2.539,0,0,1,1.855.651,2.292,2.292,0,0,1,.665,1.715q0,.266-.028.574H94.206l.014-.294A.809.809,0,0,0,94-8.428a.772.772,0,0,0-.581-.224.776.776,0,0,0-.6.245.888.888,0,0,0-.224.623.963.963,0,0,0,.511.9,2.526,2.526,0,0,0,1.253.287h.84v1.778h-.742a1.818,1.818,0,0,0-1.022.245.8.8,0,0,0-.364.707.81.81,0,0,0,.4.728,2.018,2.018,0,0,0,1.085.252,2.233,2.233,0,0,0,1.7-.672,2.459,2.459,0,0,0,.637-1.764v-5.04h3.528Zm8.176,0v2.072a2.113,2.113,0,0,1,.819-.721,2.615,2.615,0,0,1,1.2-.259,2.672,2.672,0,0,1,1.512.427,2.724,2.724,0,0,1,.98,1.155,3.83,3.83,0,0,1,.336,1.624,3.7,3.7,0,0,1-.371,1.715,2.621,2.621,0,0,1-1.022,1.1,2.915,2.915,0,0,1-1.491.378,3.914,3.914,0,0,1-.952-.112V-2.87a1.333,1.333,0,0,0,.35.042,1.218,1.218,0,0,0,.91-.357,1.349,1.349,0,0,0,.35-.987,1.42,1.42,0,0,0-.357-.994,1.217,1.217,0,0,0-.945-.392,1.164,1.164,0,0,0-.98.434,1.731,1.731,0,0,0-.336,1.092V0h-2.114V-1.946a2.217,2.217,0,0,1-.882.77,2.876,2.876,0,0,1-1.3.28,2.81,2.81,0,0,1-1.526-.413,2.669,2.669,0,0,1-1.008-1.162,3.972,3.972,0,0,1-.35-1.7,3.425,3.425,0,0,1,.8-2.366,2.759,2.759,0,0,1,2.17-.9,2.851,2.851,0,0,1,1.26.259,2.08,2.08,0,0,1,.84.721V-8.526h-6.048V-10.36h13.986v1.834Zm-3.542,5.782a1.334,1.334,0,0,0,1.043-.427,1.447,1.447,0,0,0,.385-1,1.412,1.412,0,0,0-.378-.987,1.334,1.334,0,0,0-1.036-.413,1.412,1.412,0,0,0-1.022.392,1.357,1.357,0,0,0-.406,1.022,1.377,1.377,0,0,0,.392,1.029A1.4,1.4,0,0,0,105.056-2.744Zm5.908-7.546a10.929,10.929,0,0,0-.924-1.288,1.811,1.811,0,0,0-.721-.525,3.16,3.16,0,0,0-1.029-.133h-.728V-14h.686a5.915,5.915,0,0,1,1.862.259,3.257,3.257,0,0,1,1.337,1.008,15.437,15.437,0,0,1,1.575,2.443Zm8.05-.07V0H116.83V-10.36ZM-125.23,13.982v.98a1.46,1.46,0,0,0,.259.9.976.976,0,0,0,.833.343.918.918,0,0,0,.742-.315,1.226,1.226,0,0,0,.266-.819V14.85H-121l.014.252a2.9,2.9,0,0,1-.833,2.2,3.132,3.132,0,0,1-2.261.8,3.36,3.36,0,0,1-2.464-.882,3.206,3.206,0,0,1-.9-2.394V12.134h1.946a3.568,3.568,0,0,0,1.736-.378,1.312,1.312,0,0,0,.686-1.246,1.17,1.17,0,0,0-.259-.791.9.9,0,0,0-.721-.3.9.9,0,0,0-.721.3,1.192,1.192,0,0,0-.259.8q0,.322.014.476h-2.2q-.014-.1-.028-.231a3.061,3.061,0,0,1-.014-.315,2.972,2.972,0,0,1,.392-1.526,2.662,2.662,0,0,1,1.12-1.043,3.683,3.683,0,0,1,1.694-.371,3.257,3.257,0,0,1,2.331.826,3.023,3.023,0,0,1,.875,2.31,2.978,2.978,0,0,1-1.071,2.485,4.3,4.3,0,0,1-2.751.847Zm9.072-6.342V9.474h-1.372V18h-2.226V7.64Zm3.4,6.16v1.4a1.264,1.264,0,0,0,.21.763.745.745,0,0,0,.644.287.746.746,0,0,0,.616-.28,1.107,1.107,0,0,0,.224-.714v-.392h2.114v.322a2.954,2.954,0,0,1-.77,2.142,2.837,2.837,0,0,1-2.142.8,3.3,3.3,0,0,1-1.673-.4,2.594,2.594,0,0,1-1.043-1.085,3.37,3.37,0,0,1-.35-1.554V12.036h1.414a2.1,2.1,0,0,0,1.533-.462,1.858,1.858,0,0,0,.455-1.358V9.474h-4.522V7.64h7.91V9.474h-1.19v.742a4.054,4.054,0,0,1-.777,2.625,3.141,3.141,0,0,1-2.583.959ZM-89.18,9.474h-1.372V18h-2.212V15.816a3.032,3.032,0,0,1-1.127.763,4.16,4.16,0,0,1-1.561.273,3.644,3.644,0,0,1-2.8-1.064,4.056,4.056,0,0,1-.994-2.884,5.761,5.761,0,0,1,.056-.84h.14a2.137,2.137,0,0,0,1.61-.5,2.077,2.077,0,0,0,.462-1.463v-.63h-3.486V12.89a3.123,3.123,0,0,1-.8,2.233,3,3,0,0,1-2.3.847,2.963,2.963,0,0,1-2.3-.868,3.141,3.141,0,0,1-.8-2.212V9.474h-1.372V7.64H-89.18Zm-13.44,0H-104.5v3.612a1.075,1.075,0,0,0,.259.749.888.888,0,0,0,.693.287.85.85,0,0,0,.686-.28,1.129,1.129,0,0,0,.238-.756Zm9.856,0h-2.044V10.51a2.924,2.924,0,0,1-.539,1.834,2.411,2.411,0,0,1-1.715.84,1.813,1.813,0,0,0,.574,1.33,2.144,2.144,0,0,0,1.512.5,2.123,2.123,0,0,0,1.61-.63,2.236,2.236,0,0,0,.6-1.61Zm.112-1.764a10.929,10.929,0,0,0-.924-1.288A1.811,1.811,0,0,0-94.3,5.9a3.16,3.16,0,0,0-1.029-.133h-.728V4h.686a5.915,5.915,0,0,1,1.862.259,3.257,3.257,0,0,1,1.337,1.008A15.437,15.437,0,0,1-90.594,7.71Zm23.926,1.764H-70.1V18H-72.31V16.04a3.032,3.032,0,0,1-1.127.763,4.2,4.2,0,0,1-1.575.273,4.136,4.136,0,0,1-2.044-.476,3.155,3.155,0,0,1-1.3-1.358l-2.828,2.744H-84.07V17.9l5.278-4.662v-.028a1.85,1.85,0,0,0-.693-.532,2.2,2.2,0,0,0-.931-.2,1.969,1.969,0,0,0-1.365.483,1.72,1.72,0,0,0-.539,1.351h-2.2a3.6,3.6,0,0,1,.476-1.841,3.33,3.33,0,0,1,1.372-1.288,4.5,4.5,0,0,1,2.114-.469,4.543,4.543,0,0,1,1.813.364,3.769,3.769,0,0,1,1.407,1.022,1.324,1.324,0,0,0,.623-.644,2.561,2.561,0,0,0,.189-1.05V9.474h-9V7.64h16.8Zm-3.584,0h-2.03v1.344a2.9,2.9,0,0,1-.546,1.834,2.422,2.422,0,0,1-1.708.84q.014,0,.014.028l-.042.042a1.658,1.658,0,0,0,.6,1.225,2.252,2.252,0,0,0,1.5.469,2.13,2.13,0,0,0,1.617-.623,2.245,2.245,0,0,0,.6-1.617Zm21.308,0h-1.372V18h-2.114V16.236a2.268,2.268,0,0,1-.924.686,3.309,3.309,0,0,1-1.316.252,3.513,3.513,0,0,1-1.743-.434,3.119,3.119,0,0,1-1.218-1.218,3.563,3.563,0,0,1-.441-1.778q0-.168.028-.448h-1.624v.658A3.339,3.339,0,0,1-62.5,16.3a2.9,2.9,0,0,1-2.247.847,3.554,3.554,0,0,1-1.61-.35,2.529,2.529,0,0,1-1.078-.994,2.9,2.9,0,0,1-.378-1.5,2.517,2.517,0,0,1,.889-2.086,3.5,3.5,0,0,1,2.261-.714h.9V9.474h-4.844V7.64H-51Zm-8.316,2.03a2.971,2.971,0,0,1,1.113-.8,3.733,3.733,0,0,1,1.463-.28,3.478,3.478,0,0,1,1.274.224,2.812,2.812,0,0,1,.98.63V9.474h-7.238V11.5Zm4.8,3a2.024,2.024,0,0,0,.154-.77,1.885,1.885,0,0,0-.518-1.337,1.809,1.809,0,0,0-1.386-.553,1.961,1.961,0,0,0-1.218.392Zm-3.7-.756a1.731,1.731,0,0,0,.567,1.351,1.986,1.986,0,0,0,1.379.511,1.853,1.853,0,0,0,1.218-.392l-3.01-2.254A2.059,2.059,0,0,0-58.212,13.744ZM-63.77,13.3h-.84a1.276,1.276,0,0,0-.84.266.909.909,0,0,0-.322.742.946.946,0,0,0,.273.721.985.985,0,0,0,.707.259.916.916,0,0,0,.756-.329,1.373,1.373,0,0,0,.266-.889Zm21.042-3.822v2.072a2.113,2.113,0,0,1,.819-.721,2.615,2.615,0,0,1,1.2-.259,2.672,2.672,0,0,1,1.512.427,2.724,2.724,0,0,1,.98,1.155,3.83,3.83,0,0,1,.336,1.624,3.7,3.7,0,0,1-.371,1.715,2.621,2.621,0,0,1-1.022,1.1,2.915,2.915,0,0,1-1.491.378,3.914,3.914,0,0,1-.952-.112V15.13a1.333,1.333,0,0,0,.35.042,1.218,1.218,0,0,0,.91-.357,1.349,1.349,0,0,0,.35-.987,1.42,1.42,0,0,0-.357-.994,1.217,1.217,0,0,0-.945-.392,1.164,1.164,0,0,0-.98.434,1.731,1.731,0,0,0-.336,1.092V18h-2.114V16.054a2.217,2.217,0,0,1-.882.77,2.876,2.876,0,0,1-1.3.28,2.81,2.81,0,0,1-1.526-.413,2.669,2.669,0,0,1-1.008-1.162,3.972,3.972,0,0,1-.35-1.7,3.425,3.425,0,0,1,.8-2.366,2.759,2.759,0,0,1,2.17-.9,2.851,2.851,0,0,1,1.26.259,2.08,2.08,0,0,1,.84.721V9.474H-50.89V7.64H-36.9V9.474Zm-3.542,5.782a1.334,1.334,0,0,0,1.043-.427,1.447,1.447,0,0,0,.385-1,1.412,1.412,0,0,0-.378-.987,1.334,1.334,0,0,0-1.036-.413,1.412,1.412,0,0,0-1.022.392,1.357,1.357,0,0,0-.406,1.022,1.377,1.377,0,0,0,.392,1.029A1.4,1.4,0,0,0-46.27,15.256Zm5.908-7.546a10.928,10.928,0,0,0-.924-1.288,1.811,1.811,0,0,0-.721-.525,3.16,3.16,0,0,0-1.029-.133h-.728V4h.686a5.915,5.915,0,0,1,1.862.259,3.257,3.257,0,0,1,1.337,1.008A15.437,15.437,0,0,1-38.3,7.71Zm19.012-.07V9.474h-1.372V18h-2.2V9.474h-1.764v3.164a3.2,3.2,0,0,1-.714,2.17,2.7,2.7,0,0,1-2.156.826,2.983,2.983,0,0,1-2.17-.749,2.842,2.842,0,0,1-.77-2.135q0-.308.014-.448h2.128v.434q0,1.022.742,1.022.714,0,.714-1.036V9.474h-4.34V7.64Zm4.466,0V9.474h-1.372V18h-2.2V9.474h-1.372V7.64h1.512q-.868-.546-1.169-.7a2.032,2.032,0,0,0-.63-.2,8.8,8.8,0,0,0-1.127-.049H-24V5.316h.714a10.757,10.757,0,0,1,1.12.042,2.266,2.266,0,0,1,.707.2,5.167,5.167,0,0,1,.861.553,5.614,5.614,0,0,0-.889-1.183,1.817,1.817,0,0,0-.756-.462,4.033,4.033,0,0,0-.959-.091H-24V2.992h.756a4.821,4.821,0,0,1,1.778.252A3.186,3.186,0,0,1-20.216,4.42a32.282,32.282,0,0,1,1.834,3.22Zm3.4,6.16v1.4a1.264,1.264,0,0,0,.21.763.745.745,0,0,0,.644.287.746.746,0,0,0,.616-.28,1.107,1.107,0,0,0,.224-.714v-.392h2.114v.322a2.954,2.954,0,0,1-.77,2.142,2.837,2.837,0,0,1-2.142.8,3.3,3.3,0,0,1-1.673-.4A2.594,2.594,0,0,1-15.3,16.642a3.371,3.371,0,0,1-.35-1.554V12.036h1.414a2.1,2.1,0,0,0,1.533-.462,1.858,1.858,0,0,0,.455-1.358V9.474h-4.522V7.64h7.91V9.474h-1.19v.742a4.054,4.054,0,0,1-.777,2.625,3.141,3.141,0,0,1-2.583.959ZM-4.4,7.64V9.474H-5.768V18h-2.2V9.474H-9.338V7.64H-7.9V7.108q0-1.694-1.176-1.694-1.232,0-1.232,1.694V8.13h-2.128V7.22a4.115,4.115,0,0,1,.8-2.674,3.115,3.115,0,0,1,2.562-.98q3.3,0,3.3,3.654v.42ZM11.27,9.474H9.9V18H7.686V12.89H5.922a2.929,2.929,0,0,1,.364,1.442,2.645,2.645,0,0,1-.4,1.47,2.491,2.491,0,0,1-1.064.924,3.472,3.472,0,0,1-1.477.308,3.469,3.469,0,0,1-1.561-.357A2.844,2.844,0,0,1,.63,15.641,2.886,2.886,0,0,1,.2,14.052a2.92,2.92,0,0,1,.448-1.645,2.749,2.749,0,0,1,1.2-1.015,4.092,4.092,0,0,1,1.68-.336H7.686V9.474H-.728V7.64h12Zm-7.9,5.7a1.15,1.15,0,0,0,.84-.315,1.1,1.1,0,0,0,.322-.819,1.118,1.118,0,0,0-.322-.826,1.136,1.136,0,0,0-.84-.322,1.184,1.184,0,0,0-.854.322,1.094,1.094,0,0,0-.336.826,1.083,1.083,0,0,0,.329.819A1.193,1.193,0,0,0,3.374,15.172ZM12.166,18V9.474H10.794V7.64h4.942V9.474H14.364V18Zm6.972-4.2v1.4a1.264,1.264,0,0,0,.21.763.842.842,0,0,0,1.26.007,1.107,1.107,0,0,0,.224-.714v-.392h2.114v.322a2.954,2.954,0,0,1-.77,2.142,2.837,2.837,0,0,1-2.142.8,3.3,3.3,0,0,1-1.673-.4,2.594,2.594,0,0,1-1.043-1.085,3.371,3.371,0,0,1-.35-1.554V12.036h1.414a2.1,2.1,0,0,0,1.533-.462,1.858,1.858,0,0,0,.455-1.358V9.474H15.848V7.64h7.91V9.474h-1.19v.742a4.054,4.054,0,0,1-.777,2.625,3.141,3.141,0,0,1-2.583.959ZM24.654,18V9.474H23.282V7.64h4.942V9.474H26.852V18ZM39.41,9.474H38.038V18H35.826V15.816a3.032,3.032,0,0,1-1.127.763,4.16,4.16,0,0,1-1.561.273,3.644,3.644,0,0,1-2.8-1.064,4.056,4.056,0,0,1-.994-2.884,5.76,5.76,0,0,1,.056-.84h.14a2.137,2.137,0,0,0,1.61-.5,2.077,2.077,0,0,0,.462-1.463v-.63H28.336V7.64H39.41Zm-3.584,0H33.782V10.51a2.924,2.924,0,0,1-.539,1.834,2.411,2.411,0,0,1-1.715.84,1.813,1.813,0,0,0,.574,1.33,2.144,2.144,0,0,0,1.512.5,2.123,2.123,0,0,0,1.61-.63,2.236,2.236,0,0,0,.6-1.61Zm16.716,0H51.156V18h-2.2V9.474H47.082V12.89a3.123,3.123,0,0,1-.8,2.233,3,3,0,0,1-2.3.847,2.963,2.963,0,0,1-2.3-.868,3.141,3.141,0,0,1-.8-2.212V9.474H39.522V7.64h13.02Zm-7.616,0H43.05v3.612a1.075,1.075,0,0,0,.259.749.888.888,0,0,0,.693.287.85.85,0,0,0,.686-.28,1.129,1.129,0,0,0,.238-.756ZM57.008,7.64V9.474H55.636V18h-2.2V9.474H52.066V7.64h1.442V7.108q0-1.694-1.176-1.694-1.232,0-1.232,1.694V8.13H48.972V7.22a4.115,4.115,0,0,1,.8-2.674,3.115,3.115,0,0,1,2.562-.98q3.3,0,3.3,3.654v.42ZM72.674,9.474H71.3V18H69.09V12.89H67.326a2.929,2.929,0,0,1,.364,1.442,2.645,2.645,0,0,1-.4,1.47,2.491,2.491,0,0,1-1.064.924,3.641,3.641,0,0,1-3.038-.049,2.844,2.844,0,0,1-1.155-1.036,2.886,2.886,0,0,1-.434-1.589,2.92,2.92,0,0,1,.448-1.645,2.749,2.749,0,0,1,1.2-1.015,4.092,4.092,0,0,1,1.68-.336H69.09V9.474H60.676V7.64h12Zm-7.9,5.7a1.15,1.15,0,0,0,.84-.315,1.1,1.1,0,0,0,.322-.819,1.118,1.118,0,0,0-.322-.826,1.136,1.136,0,0,0-.84-.322,1.184,1.184,0,0,0-.854.322,1.094,1.094,0,0,0-.336.826,1.083,1.083,0,0,0,.329.819A1.193,1.193,0,0,0,64.778,15.172Zm20.286-5.7H83.692V18H81.48V13.3H79.674v.658A3.339,3.339,0,0,1,78.9,16.3a2.9,2.9,0,0,1-2.247.847,3.554,3.554,0,0,1-1.61-.35,2.529,2.529,0,0,1-1.078-.994,2.9,2.9,0,0,1-.378-1.5,2.517,2.517,0,0,1,.889-2.086,3.5,3.5,0,0,1,2.261-.714h.9V9.474H72.786V7.64H85.064Zm-3.584,0H79.674V11.5H81.48ZM77.63,13.3h-.84a1.276,1.276,0,0,0-.84.266.909.909,0,0,0-.322.742.946.946,0,0,0,.273.721.985.985,0,0,0,.707.259.916.916,0,0,0,.756-.329,1.373,1.373,0,0,0,.266-.889ZM89.53,7.64V9.474H88.158V18h-2.2V9.474H84.588V7.64h1.456a10.674,10.674,0,0,0-.9-1.232,1.807,1.807,0,0,0-.714-.511,3.1,3.1,0,0,0-1.015-.133h-.728V4h.686a6.011,6.011,0,0,1,1.855.252,3.179,3.179,0,0,1,1.323.994A15.5,15.5,0,0,1,88.1,7.64Zm17.78,1.834h-1.372V18h-2.2V13h-1.75a2.055,2.055,0,0,0-1.358.42,1.463,1.463,0,0,0-.5,1.19,1.612,1.612,0,0,0,.441,1.2,1.794,1.794,0,0,0,1.309.434h.266v1.736h-.6a3.938,3.938,0,0,1-2.625-.854A3.159,3.159,0,0,1,97.9,14.57a4.375,4.375,0,0,1,.07-.77H92.946v1.372a1.24,1.24,0,0,0,.231.777.907.907,0,0,0,1.33.021,1.085,1.085,0,0,0,.231-.714v-.182h2.114a2.855,2.855,0,0,1,.014.308,2.613,2.613,0,0,1-.791,2,3.056,3.056,0,0,1-2.177.742,3.409,3.409,0,0,1-1.7-.4,2.606,2.606,0,0,1-1.064-1.092,3.389,3.389,0,0,1-.357-1.575V12.232h1.036a2.039,2.039,0,0,0,1.533-.483A1.893,1.893,0,0,0,93.8,10.4V9.474H89.656V7.64H107.31Zm-3.57,0H96V10.4a3.678,3.678,0,0,1-.336,1.61H98.98a3.538,3.538,0,0,1,1.274-.672,5.6,5.6,0,0,1,1.624-.224h1.862Zm3.458,10.6a2.466,2.466,0,0,1-.833,1.967,3.316,3.316,0,0,1-2.247.721,4.838,4.838,0,0,1-1.806-.329,2.879,2.879,0,0,1-1.33-1.057,3.156,3.156,0,0,1-.49-1.876h1.946a1.412,1.412,0,0,0,.427,1.162,1.778,1.778,0,0,0,1.2.378,1.5,1.5,0,0,0,.938-.259.952.952,0,0,0,.049-1.407,1.161,1.161,0,0,0-.819-.266h-.49V17.4h.49a3.126,3.126,0,0,1,2.212.707A2.561,2.561,0,0,1,107.2,20.072Zm10.612-10.6h-1.372V18h-2.2V13h-1.75a2.055,2.055,0,0,0-1.358.42,1.463,1.463,0,0,0-.5,1.19,1.612,1.612,0,0,0,.441,1.2,1.794,1.794,0,0,0,1.309.434h.266v1.736h-.6a3.938,3.938,0,0,1-2.625-.854A3.159,3.159,0,0,1,108.4,14.57a3.082,3.082,0,0,1,1.113-2.59,4.519,4.519,0,0,1,2.863-.868h1.862V9.474h-6.818V7.64H117.81ZM114.352,7.71a10.929,10.929,0,0,0-.924-1.288,1.811,1.811,0,0,0-.721-.525,3.16,3.16,0,0,0-1.029-.133h-.728V4h.686a5.915,5.915,0,0,1,1.862.259,3.257,3.257,0,0,1,1.337,1.008A15.437,15.437,0,0,1,116.41,7.71Zm8.05-.07V18h-2.184V7.64Zm5.4,0V18h-2.184V7.64Z" transform="translate(218 322)" fill="#f97a04"/>
    <rect id="Rectangle_18330" data-name="Rectangle 18330" width="5" height="38" transform="translate(76 307)" fill="#f97a04"/>
    <rect id="Rectangle_18332" data-name="Rectangle 18332" width="5" height="38" transform="translate(365 307)" fill="#f97a04"/>
    <rect id="Rectangle_18331" data-name="Rectangle 18331" width="5" height="38" transform="translate(66 307)" fill="#f97a04"/>
    <rect id="Rectangle_18333" data-name="Rectangle 18333" width="5" height="38" transform="translate(355 307)" fill="#f97a04"/>
    <circle id="Ellipse_470" data-name="Ellipse 470" cx="7" cy="7" r="7" transform="translate(46 319)" fill="#f97a04"/>
    <circle id="Ellipse_471" data-name="Ellipse 471" cx="7" cy="7" r="7" transform="translate(379 319)" fill="#f97a04"/>
  </g>
</svg>
