<svg xmlns="http://www.w3.org/2000/svg" width="36" height="36" viewBox="0 0 36 36">
  <g id="Sinhasan_Pooja" data-name="Sinhasan Pooja" transform="translate(-0.012 -0.223)">
    <rect id="Rectangle_716" data-name="Rectangle 716" width="36" height="36" rx="10" transform="translate(0.012 0.223)" fill="#fff"/>
    <g id="XMLID_304_" transform="translate(9.218 9.681)">
      <path id="XMLID_332_" d="M31.034,228v1.111h2.047v-2.559A1.535,1.535,0,1,0,31.034,228Z" transform="translate(-28.988 -217.346)" fill="#f6ab33"/>
      <path id="XMLID_327_" d="M390.011,226.557v2.559h2.047V228a1.535,1.535,0,1,0-2.047-1.447Z" transform="translate(-376.707 -217.346)" fill="#f6ab33"/>
      <path id="XMLID_320_" d="M12.8,378.6v-1.535h2.559v-2.047H2.058v2.047H4.616V378.6H.011v1.023h17.4V378.6Zm-6.141,0v-1.535h4.094V378.6Z" transform="translate(-0.011 -362.228)" fill="#f6ab33"/>
      <path id="XMLID_308_" d="M89.031,6.715a2.563,2.563,0,0,1,1.99,2.335A3.558,3.558,0,0,1,92.562,8.7h4.094A3.557,3.557,0,0,1,98.2,9.05a2.563,2.563,0,0,1,1.99-2.335c.014-.26.031-.527.043-.6a2.934,2.934,0,0,0-2.446-3.4l-.155-.042a3.058,3.058,0,0,0-6.066,0l-.133.038a2.934,2.934,0,0,0-2.443,3.4c.012.071.029.338.043.6Zm8.286-1.448.724.724-.724.724-.724-.724ZM94.609,2.5l.724.724-.724.724-.724-.724Zm0,2.771.724.724-.724.724-.724-.724Zm-2.708,0,.724.724-.724.724-.724-.724Z" transform="translate(-85.91 0.001)" fill="#f6ab33"/>
      <path id="XMLID_305_" d="M151.546,285.022a2.545,2.545,0,0,0-1.535.513v1.534h7.164v-1.534a2.545,2.545,0,0,0-1.535-.513Z" transform="translate(-144.894 -275.299)" fill="#f6ab33"/>
    </g>
  </g>
</svg>
