<svg xmlns="http://www.w3.org/2000/svg" width="40.5" height="40.5" viewBox="0 0 40.5 40.5">
  <g id="Edit" transform="translate(-0.001)">
    <g id="Group_16932" data-name="Group 16932" transform="translate(0.001)">
      <path id="Path_4511" data-name="Path 4511" d="M20.25,0A20.25,20.25,0,1,0,40.5,20.25,20.25,20.25,0,0,0,20.25,0Zm9.626,14.573L27.953,16.5l-3.915-3.915-1.485,1.485,3.915,3.915-9.6,9.6L12.95,23.669l-1.485,1.485,3.915,3.915-.957.957-.018-.018a.758.758,0,0,1-.484.348l-3.651.814a.759.759,0,0,1-.906-.907l.814-3.65a.76.76,0,0,1,.348-.484l-.018-.018L25.961,10.657a.581.581,0,0,1,.821,0l3.094,3.094A.581.581,0,0,1,29.877,14.573Z" transform="translate(-0.001)" fill="#f68c33"/>
    </g>
  </g>
</svg>
