<svg xmlns="http://www.w3.org/2000/svg" width="14.807" height="19.743" viewBox="0 0 14.807 19.743">
  <g id="Password_Validator" transform="translate(-5 -1)">
    <path id="Path_2984" data-name="Path 2984" d="M12.4,1A5.53,5.53,0,0,0,6.851,6.553V9.021A1.818,1.818,0,0,0,5,10.872v8.021a1.818,1.818,0,0,0,1.851,1.851H17.957a1.818,1.818,0,0,0,1.851-1.851V10.872a1.818,1.818,0,0,0-1.851-1.851V6.553A5.53,5.53,0,0,0,12.4,1Zm6.17,9.872v8.021a.583.583,0,0,1-.617.617H6.851a.583.583,0,0,1-.617-.617V10.872a.583.583,0,0,1,.617-.617H17.957A.583.583,0,0,1,18.574,10.872ZM8.085,9.021V6.553a4.319,4.319,0,0,1,8.638,0V9.021Z" fill="#797979"/>
    <path id="Path_2985" data-name="Path 2985" d="M15.851,19A1.818,1.818,0,0,0,14,20.851a1.8,1.8,0,0,0,1.234,1.728v1.357a.617.617,0,0,0,1.234,0V22.578A1.8,1.8,0,0,0,17.7,20.851,1.818,1.818,0,0,0,15.851,19Zm0,2.468a.617.617,0,1,1,.617-.617A.583.583,0,0,1,15.851,21.468Z" transform="translate(-3.447 -6.894)" fill="#797979"/>
  </g>
</svg>
