<svg xmlns="http://www.w3.org/2000/svg" width="18.129" height="18.129" viewBox="0 0 18.129 18.129">
  <path id="Username_Validator" d="M15.473,2.655A9.064,9.064,0,0,0,2.654,15.474,9.064,9.064,0,0,0,15.473,2.655ZM3.933,15.2a5.186,5.186,0,0,1,5.13-4.564,5.166,5.166,0,0,1,5.13,4.564,7.985,7.985,0,0,1-10.261,0Zm5.13-5.658a2.753,2.753,0,1,1,2.753-2.753A2.756,2.756,0,0,1,9.064,9.543Zm6.045,4.76A6.244,6.244,0,0,0,11.2,9.949a3.815,3.815,0,1,0-4.271,0A6.239,6.239,0,0,0,3.018,14.3a8,8,0,1,1,12.09,0Zm0,0" transform="translate(0.001)" fill="#797979"/>
</svg>
