<svg xmlns="http://www.w3.org/2000/svg" width="28" height="28" viewBox="0 0 28 28">
  <path id="Scan_Pass" data-name="Scan Pass" d="M29.006,24A1,1,0,0,1,30,25v4a1,1,0,0,1-.994,1H25a1,1,0,0,1,0-2h3V25a1,1,0,0,1,1-1Zm-26,0A1,1,0,0,1,4,25v3H7a1,1,0,0,1,.006,2H3a1,1,0,0,1-1-1V25a1,1,0,0,1,.994-1Zm22-5A1,1,0,0,1,26,20v5a1,1,0,0,1-.994,1H25a1,1,0,0,1-1-1V20a1,1,0,0,1,1-1Zm-11,0A1,1,0,0,1,15,20v5a1,1,0,0,1-.994,1H14a1,1,0,0,1-1-1V20a1,1,0,0,1,1-1ZM7,26a1,1,0,0,1-1-1V20a1,1,0,0,1,1-1h3.006A1,1,0,0,1,11,20v5a1,1,0,0,1-.9,1c-.032,0-.064,0-.1,0H7Zm11,0a1,1,0,0,1-1-1V20a1,1,0,0,1,1-1h3a1,1,0,0,1,1,1v5a1,1,0,0,1-1,1ZM13,7a1,1,0,0,1,2,0v8h2V7a1,1,0,0,1,1-1h3a1,1,0,0,1,1,1v8h2V7a1,1,0,0,1,2,0v8h3a1,1,0,0,1,0,2H3a1,1,0,0,1-1-.994H2a1,1,0,0,1,1-1l3,0V7A1,1,0,0,1,7,6h3a1,1,0,0,1,1,1v8h2ZM25,2h4a1,1,0,0,1,1,1V7a1,1,0,0,1-2,0V4H24.994A1,1,0,0,1,25,2ZM3,8A1,1,0,0,1,2,7V3A1,1,0,0,1,3,2H7a1,1,0,0,1,.006,2H4V7a1,1,0,0,1-.994,1Z" transform="translate(-2 -2)" fill="#ec6019" fill-rule="evenodd"/>
</svg>
